<svg xmlns="http://www.w3.org/2000/svg" xmlns:xlink="http://www.w3.org/1999/xlink" width="2000" zoomAndPan="magnify" viewBox="0 0 1500 1499.999933" height="2000" preserveAspectRatio="xMidYMid meet" version="1.0"><defs><clipPath id="94cb279ca2"><path d="M 750 0 C 335.785156 0 0 335.785156 0 750 C 0 1164.214844 335.785156 1500 750 1500 C 1164.214844 1500 1500 1164.214844 1500 750 C 1500 335.785156 1164.214844 0 750 0 Z M 750 0 " clip-rule="nonzero"/></clipPath><clipPath id="2e011c1dd7"><path d="M 0 0 L 1500 0 L 1500 1500 L 0 1500 Z M 0 0 " clip-rule="nonzero"/></clipPath><clipPath id="c8d3e9387a"><path d="M 750 0 C 335.785156 0 0 335.785156 0 750 C 0 1164.214844 335.785156 1500 750 1500 C 1164.214844 1500 1500 1164.214844 1500 750 C 1500 335.785156 1164.214844 0 750 0 Z M 750 0 " clip-rule="nonzero"/></clipPath><clipPath id="328dd2f668"><rect x="0" width="1500" y="0" height="1500"/></clipPath><clipPath id="6333f3ad57"><path d="M 228.828125 241.855469 L 1271.328125 241.855469 L 1271.328125 1258.105469 L 228.828125 1258.105469 Z M 228.828125 241.855469 " clip-rule="nonzero"/></clipPath></defs><g clip-path="url(#94cb279ca2)"><g transform="matrix(1, 0, 0, 1, 0, 0.000000000000112861)"><g clip-path="url(#328dd2f668)"><g clip-path="url(#2e011c1dd7)"><g clip-path="url(#c8d3e9387a)"><rect x="-330" width="2160" fill="#00005b" height="2159.999904" y="-329.999985" fill-opacity="1"/></g></g></g></g></g><g clip-path="url(#6333f3ad57)"><path fill="#00005b" d="M 413.4375 241.859375 L 1086.71875 241.859375 C 1188.796875 241.859375 1271.328125 324.375 1271.328125 426.433594 L 1271.328125 1073.527344 C 1271.328125 1175.585938 1188.796875 1258.101562 1086.71875 1258.101562 L 413.4375 1258.101562 C 311.359375 1258.101562 228.828125 1175.585938 228.828125 1073.527344 L 228.828125 426.433594 C 228.828125 324.375 311.359375 241.859375 413.4375 241.859375 Z M 413.4375 241.859375 " fill-opacity="1" fill-rule="nonzero"/></g><path fill="#9999ff" d="M 476.421875 954.097656 L 476.421875 506.777344 C 476.421875 503.738281 477.722656 502 480.765625 502 C 488.148438 502 495.097656 502 505.089844 501.566406 C 515.515625 501.132812 526.375 501.132812 538.101562 500.699219 C 549.828125 500.261719 562.425781 500.261719 575.890625 499.828125 C 589.359375 499.394531 602.390625 499.394531 615.421875 499.394531 C 651.039062 499.394531 680.578125 503.738281 704.902344 512.859375 C 726.621094 520.242188 746.601562 532.402344 763.109375 548.46875 C 777.007812 562.367188 787.867188 579.304688 794.816406 597.980469 C 801.332031 616.21875 804.808594 634.894531 804.808594 654.4375 C 804.808594 691.785156 796.121094 722.621094 778.746094 746.941406 C 761.371094 771.261719 737.046875 789.5 708.8125 799.925781 C 679.273438 810.78125 646.695312 814.691406 611.078125 814.691406 C 600.652344 814.691406 593.703125 814.691406 589.359375 814.257812 C 585.015625 813.820312 578.933594 813.820312 570.679688 813.820312 L 570.679688 953.230469 C 571.113281 956.269531 568.941406 958.875 565.902344 959.308594 L 481.632812 959.308594 C 478.15625 959.308594 476.421875 957.574219 476.421875 953.664062 Z M 571.113281 586.253906 L 571.113281 732.175781 C 577.195312 732.609375 582.84375 733.042969 588.054688 733.042969 L 611.078125 733.042969 C 628.015625 733.042969 644.957031 730.4375 661.03125 725.226562 C 674.929688 721.316406 687.09375 713.066406 696.648438 702.207031 C 705.769531 691.351562 710.113281 676.585938 710.113281 657.476562 C 710.546875 644.015625 707.074219 630.550781 700.125 618.824219 C 692.738281 607.535156 682.3125 598.847656 669.71875 594.070312 C 653.644531 587.554688 636.269531 584.949219 618.460938 585.382812 C 607.167969 585.382812 597.175781 585.382812 588.921875 585.820312 C 580.234375 585.382812 574.15625 585.820312 571.113281 586.253906 Z M 571.113281 586.253906 " fill-opacity="1" fill-rule="nonzero"/><path fill="#9999ff" d="M 867.359375 611.875 L 943.375 611.875 C 947.71875 611.875 951.191406 614.917969 952.496094 618.824219 C 953.796875 622.300781 954.667969 625.773438 955.101562 629.683594 C 955.96875 634.023438 956.839844 638.800781 957.273438 643.144531 C 957.707031 647.921875 958.140625 653.132812 958.140625 658.78125 C 971.171875 643.578125 986.8125 630.984375 1004.621094 621.429688 C 1024.601562 610.140625 1047.625 604.492188 1070.644531 604.492188 C 1073.6875 604.058594 1076.292969 606.230469 1076.726562 609.269531 L 1076.726562 695.695312 C 1076.726562 699.167969 1074.554688 700.472656 1069.777344 700.472656 C 1054.140625 700.039062 1038.066406 701.339844 1022.863281 704.816406 C 1010.265625 707.421875 998.105469 711.328125 986.375 716.539062 C 978.125 720.449219 970.304688 725.660156 964.222656 732.609375 L 964.222656 954.097656 C 964.222656 958.441406 962.484375 960.179688 958.578125 960.179688 L 873.003906 960.179688 C 869.53125 960.613281 866.488281 958.441406 866.054688 954.964844 L 866.054688 712.632812 C 866.054688 702.207031 866.054688 691.351562 865.621094 680.058594 C 865.1875 668.769531 865.1875 657.476562 864.75 646.183594 C 864.75 636.195312 863.882812 626.640625 863.015625 616.652344 C 862.578125 614.480469 863.882812 612.308594 866.054688 611.875 C 866.054688 611.441406 866.921875 611.441406 867.359375 611.875 Z M 867.359375 611.875 " fill-opacity="1" fill-rule="nonzero"/></svg>