<svg xmlns="http://www.w3.org/2000/svg" xmlns:xlink="http://www.w3.org/1999/xlink" width="2000" zoomAndPan="magnify" viewBox="0 0 1500 1499.999933" height="2000" preserveAspectRatio="xMidYMid meet" version="1.0"><defs><clipPath id="90c8696178"><path d="M 750 0 C 335.785156 0 0 335.785156 0 750 C 0 1164.214844 335.785156 1500 750 1500 C 1164.214844 1500 1500 1164.214844 1500 750 C 1500 335.785156 1164.214844 0 750 0 Z M 750 0 " clip-rule="nonzero"/></clipPath><clipPath id="fb456c4e4f"><path d="M 0 0 L 1500 0 L 1500 1500 L 0 1500 Z M 0 0 " clip-rule="nonzero"/></clipPath><clipPath id="d81724b56a"><path d="M 750 0 C 335.785156 0 0 335.785156 0 750 C 0 1164.214844 335.785156 1500 750 1500 C 1164.214844 1500 1500 1164.214844 1500 750 C 1500 335.785156 1164.214844 0 750 0 Z M 750 0 " clip-rule="nonzero"/></clipPath><clipPath id="56118f06b6"><rect x="0" width="1500" y="0" height="1500"/></clipPath><clipPath id="57855873ec"><path d="M 220.921875 234.148438 L 1279.171875 234.148438 L 1279.171875 1266.148438 L 220.921875 1266.148438 Z M 220.921875 234.148438 " clip-rule="nonzero"/></clipPath></defs><g clip-path="url(#90c8696178)"><g transform="matrix(1, 0, 0, 1, 0, 0.000000000000112861)"><g clip-path="url(#56118f06b6)"><g clip-path="url(#fb456c4e4f)"><g clip-path="url(#d81724b56a)"><rect x="-330" width="2160" fill="#00005b" height="2159.999904" y="-329.999985" fill-opacity="1"/></g></g></g></g></g><g clip-path="url(#57855873ec)"><path fill="#00005b" d="M 408.320312 234.148438 L 1091.769531 234.148438 C 1195.390625 234.148438 1279.167969 317.941406 1279.167969 421.582031 L 1279.167969 1078.710938 C 1279.167969 1182.351562 1195.390625 1266.148438 1091.769531 1266.148438 L 408.320312 1266.148438 C 304.703125 1266.148438 220.925781 1182.351562 220.925781 1078.710938 L 220.925781 421.582031 C 220.925781 317.941406 304.703125 234.148438 408.320312 234.148438 Z M 408.320312 234.148438 " fill-opacity="1" fill-rule="nonzero"/></g><path fill="#9999ff" d="M 645.984375 851.582031 L 481.957031 851.582031 L 448.445312 955.664062 C 447.5625 959.632812 444.035156 962.28125 440.066406 961.839844 L 357.171875 961.839844 C 352.324219 961.839844 351 959.191406 352.324219 953.902344 L 494.304688 546.835938 C 495.625 542.425781 496.949219 538.453125 498.710938 533.164062 C 500.476562 523.902344 501.359375 514.199219 501.359375 504.496094 C 500.917969 502.289062 502.679688 500.085938 504.886719 499.644531 L 619.085938 499.644531 C 622.175781 499.644531 624.378906 500.96875 624.820312 503.171875 L 785.761719 953.019531 C 787.082031 957.871094 785.761719 960.074219 781.351562 960.074219 L 689.195312 960.074219 C 686.109375 960.515625 683.023438 958.3125 682.140625 955.222656 L 645.984375 849.378906 Z M 507.53125 763.820312 L 619.527344 763.820312 C 616.882812 754.558594 613.355469 743.53125 609.386719 732.066406 C 605.417969 720.15625 601.449219 707.367188 597.480469 694.136719 C 593.074219 680.464844 589.105469 667.234375 584.695312 653.5625 C 580.285156 639.890625 576.316406 627.101562 572.789062 614.3125 C 569.261719 601.960938 566.175781 590.496094 563.089844 579.910156 L 562.207031 579.910156 C 558.238281 598.875 553.386719 617.839844 547.214844 636.804688 C 540.601562 657.972656 533.988281 680.023438 526.933594 702.074219 C 521.199219 724.566406 514.144531 745.296875 507.53125 763.820312 Z M 507.53125 763.820312 " fill-opacity="1" fill-rule="nonzero"/><path fill="#9999ff" d="M 1045.472656 811.890625 L 905.695312 811.890625 C 907.457031 825.5625 911.867188 839.234375 919.363281 851.140625 C 927.300781 863.050781 938.324219 872.3125 951.550781 877.605469 C 969.191406 885.101562 988.589844 889.070312 1007.992188 888.628906 C 1023.425781 888.1875 1038.855469 886.863281 1053.847656 883.777344 C 1067.519531 882.015625 1080.746094 878.484375 1093.09375 873.632812 C 1095.296875 871.871094 1096.621094 872.753906 1096.621094 877.164062 L 1096.621094 944.640625 C 1096.621094 946.402344 1096.179688 948.167969 1095.738281 949.933594 C 1094.855469 951.253906 1093.972656 952.136719 1092.652344 953.019531 C 1078.542969 959.191406 1063.992188 963.601562 1048.558594 966.25 C 1027.835938 970.21875 1007.109375 971.984375 985.945312 971.542969 C 952.433594 971.542969 924.214844 966.25 901.285156 956.105469 C 879.679688 946.84375 860.71875 932.289062 845.726562 914.207031 C 831.617188 897.007812 821.476562 877.601562 815.304688 856.433594 C 809.128906 835.707031 806.042969 814.097656 806.042969 792.042969 C 806.042969 768.230469 809.570312 744.855469 817.066406 721.921875 C 824.121094 699.871094 835.144531 679.582031 850.136719 661.5 C 864.6875 643.859375 882.765625 629.746094 903.492188 619.601562 C 924.214844 609.460938 948.90625 605.933594 977.125 605.933594 C 1000.496094 605.492188 1023.867188 609.902344 1045.472656 619.601562 C 1063.550781 627.542969 1079.421875 639.449219 1091.769531 654.886719 C 1103.234375 669.878906 1112.492188 686.640625 1118.226562 705.164062 C 1123.957031 722.804688 1126.601562 740.886719 1126.601562 758.96875 C 1126.601562 769.550781 1126.164062 778.8125 1125.722656 787.191406 C 1124.839844 795.574219 1124.398438 801.746094 1123.957031 805.714844 C 1123.515625 808.804688 1120.871094 811.449219 1117.785156 811.449219 C 1115.140625 811.449219 1110.289062 811.890625 1103.234375 812.332031 C 1096.179688 813.214844 1087.800781 813.65625 1077.660156 813.65625 C 1067.519531 813.65625 1056.9375 811.890625 1045.472656 811.890625 Z M 905.695312 747.5 L 998.730469 747.5 C 1010.195312 747.5 1018.574219 747.5 1023.867188 747.058594 C 1027.394531 746.617188 1030.921875 745.738281 1034.007812 743.53125 L 1034.007812 739.121094 C 1034.007812 733.386719 1033.125 728.097656 1031.363281 722.804688 C 1023.425781 698.105469 1000.054688 681.347656 974.039062 682.230469 C 949.789062 680.90625 926.859375 693.695312 915.394531 715.746094 C 910.105469 725.890625 907.019531 736.476562 905.695312 747.5 Z M 905.695312 747.5 " fill-opacity="1" fill-rule="nonzero"/></svg>