<svg xmlns="http://www.w3.org/2000/svg" xmlns:xlink="http://www.w3.org/1999/xlink" width="2000" zoomAndPan="magnify" viewBox="0 0 1500 1499.999933" height="2000" preserveAspectRatio="xMidYMid meet" version="1.0"><defs><clipPath id="6256b6184d"><path d="M 750 0 C 335.785156 0 0 335.785156 0 750 C 0 1164.214844 335.785156 1500 750 1500 C 1164.214844 1500 1500 1164.214844 1500 750 C 1500 335.785156 1164.214844 0 750 0 Z M 750 0 " clip-rule="nonzero"/></clipPath><clipPath id="82956b2342"><path d="M 0 0 L 1500 0 L 1500 1500 L 0 1500 Z M 0 0 " clip-rule="nonzero"/></clipPath><clipPath id="e4de020a09"><path d="M 750 0 C 335.785156 0 0 335.785156 0 750 C 0 1164.214844 335.785156 1500 750 1500 C 1164.214844 1500 1500 1164.214844 1500 750 C 1500 335.785156 1164.214844 0 750 0 Z M 750 0 " clip-rule="nonzero"/></clipPath><clipPath id="b253e2945a"><rect x="0" width="1500" y="0" height="1500"/></clipPath><clipPath id="3235f96dc2"><path d="M 436.804688 444.355469 L 1130.554688 444.355469 L 1130.554688 1055.605469 L 436.804688 1055.605469 Z M 436.804688 444.355469 " clip-rule="nonzero"/></clipPath></defs><g clip-path="url(#6256b6184d)"><g transform="matrix(1, 0, 0, 1, 0, 0.000000000000112861)"><g clip-path="url(#b253e2945a)"><g clip-path="url(#82956b2342)"><g clip-path="url(#e4de020a09)"><rect x="-330" width="2160" fill="#001e36" height="2159.999904" y="-329.999985" fill-opacity="1"/></g></g></g></g></g><g clip-path="url(#3235f96dc2)"><path fill="#001e36" d="M 201.007812 565.292969 C 201.007812 426.046875 201.007812 356.425781 228.105469 303.238281 C 251.941406 256.457031 289.980469 218.421875 336.761719 194.582031 C 389.949219 167.484375 459.570312 167.484375 598.816406 167.484375 L 902.414062 167.484375 C 1041.660156 167.484375 1111.285156 167.484375 1164.46875 194.582031 C 1211.25 218.421875 1249.289062 256.457031 1273.125 303.238281 C 1300.226562 356.425781 1300.226562 426.046875 1300.226562 565.292969 L 1300.226562 868.890625 C 1300.226562 1008.136719 1300.226562 1077.761719 1273.125 1130.945312 C 1249.289062 1177.726562 1211.25 1215.765625 1164.46875 1239.601562 C 1111.285156 1266.703125 1041.660156 1266.703125 902.414062 1266.703125 L 598.816406 1266.703125 C 459.570312 1266.703125 389.949219 1266.703125 336.761719 1239.601562 C 289.980469 1215.765625 251.941406 1177.726562 228.105469 1130.945312 C 201.007812 1077.761719 201.007812 1008.136719 201.007812 868.890625 Z M 201.007812 565.292969 " fill-opacity="1" fill-rule="nonzero"/></g><path fill="#31a8ff" d="M 778.300781 976.984375 L 487.765625 976.984375 C 482.847656 976.984375 480.390625 974.207031 480.394531 968.664062 L 480.394531 488.410156 C 479.847656 484.507812 483.222656 481.046875 487.03125 481.605469 L 576.996094 481.605469 C 579.953125 481.175781 582.566406 483.910156 582.152344 486.902344 L 582.152344 881.6875 L 793.789062 881.6875 C 798.207031 881.6875 799.933594 883.957031 798.945312 888.496094 L 785.671875 970.175781 C 785.558594 974.289062 782.183594 976.941406 778.300781 976.984375 Z M 778.300781 976.984375 " fill-opacity="1" fill-rule="nonzero"/><path fill="#31a8ff" d="M 852.109375 600.570312 L 932.484375 600.570312 C 936.917969 600.609375 940.898438 603.75 942.074219 608.136719 C 947.960938 621.550781 948.6875 637.726562 948.710938 652.207031 C 962.496094 635.746094 979.117188 622.03125 997.742188 611.75 C 1017.726562 600.152344 1040.378906 594.273438 1063.332031 594.730469 C 1067.140625 594.171875 1070.511719 597.632812 1069.964844 601.539062 L 1069.964844 693.050781 C 1069.964844 696.585938 1067.5 698.34375 1062.59375 698.34375 C 1028.574219 695.9375 975.605469 704.179688 950.886719 731.621094 L 950.886719 969.566406 C 950.886719 974.105469 948.917969 976.375 944.984375 976.375 L 858.746094 976.375 C 854.511719 976.996094 850.773438 973.085938 851.371094 968.808594 L 851.371094 710.445312 C 851.371094 675.824219 852.105469 640.164062 846.945312 605.867188 C 846.152344 602.710938 849.101562 599.777344 852.109375 600.570312 Z M 852.109375 600.570312 " fill-opacity="1" fill-rule="nonzero"/></svg>