<svg xmlns="http://www.w3.org/2000/svg" xmlns:xlink="http://www.w3.org/1999/xlink" width="2000" zoomAndPan="magnify" viewBox="0 0 1500 1499.999933" height="2000" preserveAspectRatio="xMidYMid meet" version="1.0"><defs><clipPath id="0f2a2e1779"><path d="M 750 0 C 335.785156 0 0 335.785156 0 750 C 0 1164.214844 335.785156 1500 750 1500 C 1164.214844 1500 1500 1164.214844 1500 750 C 1500 335.785156 1164.214844 0 750 0 Z M 750 0 " clip-rule="nonzero"/></clipPath><clipPath id="a4c9d3539c"><path d="M 0 0 L 1500 0 L 1500 1500 L 0 1500 Z M 0 0 " clip-rule="nonzero"/></clipPath><clipPath id="8d681bbd31"><path d="M 750 0 C 335.785156 0 0 335.785156 0 750 C 0 1164.214844 335.785156 1500 750 1500 C 1164.214844 1500 1500 1164.214844 1500 750 C 1500 335.785156 1164.214844 0 750 0 Z M 750 0 " clip-rule="nonzero"/></clipPath><clipPath id="dd2dbb6258"><rect x="0" width="1500" y="0" height="1500"/></clipPath><clipPath id="cb0757d3a5"><path d="M 309.761719 339.089844 L 1190.261719 339.089844 L 1190.261719 1161 L 309.761719 1161 Z M 309.761719 339.089844 " clip-rule="nonzero"/></clipPath><clipPath id="0e927d7d10"><path d="M 309.761719 414.089844 L 309.761719 1085.910156 C 309.761719 1127.332031 343.339844 1160.910156 384.761719 1160.910156 L 1115.238281 1160.910156 C 1156.660156 1160.910156 1190.238281 1127.332031 1190.238281 1085.910156 L 1190.238281 414.089844 C 1190.238281 372.667969 1156.660156 339.089844 1115.238281 339.089844 L 384.761719 339.089844 C 343.339844 339.089844 309.761719 372.667969 309.761719 414.089844 Z M 309.761719 414.089844 " clip-rule="nonzero"/></clipPath><clipPath id="302d466516"><path d="M 416 475 L 781 475 L 781 984 L 416 984 Z M 416 475 " clip-rule="nonzero"/></clipPath><clipPath id="9de07f76be"><path d="M 309.761719 414.089844 L 309.761719 1085.910156 C 309.761719 1127.332031 343.339844 1160.910156 384.761719 1160.910156 L 1115.238281 1160.910156 C 1156.660156 1160.910156 1190.238281 1127.332031 1190.238281 1085.910156 L 1190.238281 414.089844 C 1190.238281 372.667969 1156.660156 339.089844 1115.238281 339.089844 L 384.761719 339.089844 C 343.339844 339.089844 309.761719 372.667969 309.761719 414.089844 Z M 309.761719 414.089844 " clip-rule="nonzero"/></clipPath><clipPath id="03cd11c6de"><path d="M 830 593 L 1110 593 L 1110 994 L 830 994 Z M 830 593 " clip-rule="nonzero"/></clipPath><clipPath id="ae193e2cb1"><path d="M 309.761719 414.089844 L 309.761719 1085.910156 C 309.761719 1127.332031 343.339844 1160.910156 384.761719 1160.910156 L 1115.238281 1160.910156 C 1156.660156 1160.910156 1190.238281 1127.332031 1190.238281 1085.910156 L 1190.238281 414.089844 C 1190.238281 372.667969 1156.660156 339.089844 1115.238281 339.089844 L 384.761719 339.089844 C 343.339844 339.089844 309.761719 372.667969 309.761719 414.089844 Z M 309.761719 414.089844 " clip-rule="nonzero"/></clipPath></defs><g clip-path="url(#0f2a2e1779)"><g transform="matrix(1, 0, 0, 1, 0, 0.000000000000112861)"><g clip-path="url(#dd2dbb6258)"><g clip-path="url(#a4c9d3539c)"><g clip-path="url(#8d681bbd31)"><rect x="-330" width="2160" fill="#001e36" height="2159.999904" y="-329.999985" fill-opacity="1"/></g></g></g></g></g><g clip-path="url(#cb0757d3a5)"><g clip-path="url(#0e927d7d10)"><path fill="#001e36" d="M 360.949219 188.804688 L 1105.914062 188.804688 C 1109.253906 188.804688 1112.597656 188.886719 1115.933594 189.050781 C 1119.273438 189.214844 1122.605469 189.460938 1125.933594 189.789062 C 1129.261719 190.113281 1132.578125 190.523438 1135.882812 191.015625 C 1139.191406 191.503906 1142.484375 192.074219 1145.761719 192.726562 C 1149.039062 193.378906 1152.300781 194.113281 1155.542969 194.921875 C 1158.785156 195.734375 1162.007812 196.625 1165.207031 197.597656 C 1168.40625 198.566406 1171.578125 199.613281 1174.726562 200.742188 C 1177.875 201.867188 1180.992188 203.070312 1184.082031 204.347656 C 1187.167969 205.625 1190.222656 206.980469 1193.246094 208.410156 C 1196.269531 209.835938 1199.253906 211.339844 1202.203125 212.914062 C 1205.148438 214.488281 1208.058594 216.136719 1210.925781 217.855469 C 1213.792969 219.574219 1216.617188 221.359375 1219.394531 223.214844 C 1222.175781 225.074219 1224.90625 226.996094 1227.59375 228.988281 C 1230.277344 230.976562 1232.910156 233.035156 1235.496094 235.152344 C 1238.078125 237.273438 1240.609375 239.457031 1243.085938 241.699219 C 1245.5625 243.945312 1247.984375 246.246094 1250.347656 248.609375 C 1252.710938 250.972656 1255.015625 253.394531 1257.261719 255.867188 C 1259.507812 258.34375 1261.691406 260.875 1263.808594 263.457031 C 1265.929688 266.042969 1267.988281 268.675781 1269.976562 271.359375 C 1271.96875 274.042969 1273.894531 276.773438 1275.75 279.554688 C 1277.609375 282.332031 1279.398438 285.152344 1281.117188 288.019531 C 1282.832031 290.886719 1284.480469 293.792969 1286.058594 296.738281 C 1287.632812 299.6875 1289.136719 302.671875 1290.566406 305.691406 C 1291.992188 308.714844 1293.347656 311.765625 1294.628906 314.855469 C 1295.90625 317.941406 1297.109375 321.058594 1298.234375 324.207031 C 1299.363281 327.351562 1300.410156 330.523438 1301.378906 333.722656 C 1302.351562 336.917969 1303.242188 340.140625 1304.054688 343.378906 C 1304.867188 346.621094 1305.597656 349.882812 1306.25 353.160156 C 1306.902344 356.4375 1307.476562 359.726562 1307.964844 363.035156 C 1308.457031 366.339844 1308.863281 369.65625 1309.191406 372.980469 C 1309.519531 376.304688 1309.765625 379.636719 1309.929688 382.976562 C 1310.09375 386.3125 1310.175781 389.652344 1310.175781 392.996094 L 1310.175781 1108.863281 C 1310.175781 1112.207031 1310.09375 1115.542969 1309.929688 1118.882812 C 1309.765625 1122.21875 1309.519531 1125.550781 1309.191406 1128.878906 C 1308.863281 1132.203125 1308.457031 1135.519531 1307.964844 1138.824219 C 1307.476562 1142.128906 1306.902344 1145.421875 1306.25 1148.699219 C 1305.597656 1151.976562 1304.867188 1155.234375 1304.054688 1158.476562 C 1303.242188 1161.71875 1302.351562 1164.9375 1301.378906 1168.136719 C 1300.410156 1171.335938 1299.363281 1174.507812 1298.234375 1177.652344 C 1297.109375 1180.800781 1295.90625 1183.917969 1294.628906 1187.003906 C 1293.347656 1190.089844 1291.992188 1193.144531 1290.566406 1196.167969 C 1289.136719 1199.1875 1287.632812 1202.171875 1286.058594 1205.117188 C 1284.480469 1208.066406 1282.832031 1210.972656 1281.113281 1213.839844 C 1279.398438 1216.703125 1277.609375 1219.527344 1275.75 1222.304688 C 1273.894531 1225.085938 1271.96875 1227.816406 1269.976562 1230.5 C 1267.988281 1233.183594 1265.929688 1235.816406 1263.808594 1238.402344 C 1261.691406 1240.984375 1259.507812 1243.511719 1257.261719 1245.988281 C 1255.015625 1248.464844 1252.710938 1250.886719 1250.347656 1253.246094 C 1247.984375 1255.609375 1245.5625 1257.914062 1243.085938 1260.160156 C 1240.609375 1262.402344 1238.078125 1264.585938 1235.496094 1266.703125 C 1232.910156 1268.824219 1230.277344 1270.878906 1227.59375 1272.871094 C 1224.90625 1274.863281 1222.175781 1276.785156 1219.394531 1278.640625 C 1216.617188 1280.5 1213.792969 1282.285156 1210.925781 1284.003906 C 1208.058594 1285.722656 1205.148438 1287.367188 1202.203125 1288.945312 C 1199.253906 1290.519531 1196.269531 1292.019531 1193.246094 1293.449219 C 1190.222656 1294.878906 1187.167969 1296.230469 1184.082031 1297.511719 C 1180.992188 1298.789062 1177.875 1299.992188 1174.726562 1301.117188 C 1171.578125 1302.242188 1168.40625 1303.292969 1165.207031 1304.261719 C 1162.007812 1305.230469 1158.785156 1306.121094 1155.542969 1306.933594 C 1152.300781 1307.746094 1149.039062 1308.480469 1145.761719 1309.128906 C 1142.484375 1309.78125 1139.191406 1310.355469 1135.882812 1310.84375 C 1132.578125 1311.335938 1129.261719 1311.742188 1125.933594 1312.070312 C 1122.605469 1312.398438 1119.273438 1312.644531 1115.933594 1312.808594 C 1112.597656 1312.972656 1109.253906 1313.054688 1105.914062 1313.054688 L 360.949219 1313.054688 C 357.605469 1313.054688 354.265625 1312.972656 350.925781 1312.808594 C 347.585938 1312.644531 344.253906 1312.398438 340.925781 1312.070312 C 337.601562 1311.742188 334.285156 1311.335938 330.976562 1310.84375 C 327.671875 1310.355469 324.378906 1309.78125 321.097656 1309.128906 C 317.820312 1308.480469 314.558594 1307.746094 311.316406 1306.933594 C 308.074219 1306.121094 304.851562 1305.230469 301.652344 1304.261719 C 298.457031 1303.292969 295.28125 1302.242188 292.132812 1301.117188 C 288.988281 1299.992188 285.867188 1298.789062 282.78125 1297.511719 C 279.691406 1296.230469 276.636719 1294.878906 273.613281 1293.449219 C 270.59375 1292.019531 267.609375 1290.519531 264.660156 1288.945312 C 261.710938 1287.367188 258.804688 1285.722656 255.9375 1284.003906 C 253.070312 1282.285156 250.246094 1280.5 247.464844 1278.640625 C 244.6875 1276.785156 241.953125 1274.863281 239.269531 1272.871094 C 236.582031 1270.878906 233.949219 1268.824219 231.363281 1266.703125 C 228.78125 1264.585938 226.25 1262.402344 223.773438 1260.160156 C 221.296875 1257.914062 218.875 1255.609375 216.511719 1253.246094 C 214.148438 1250.886719 211.84375 1248.464844 209.597656 1245.988281 C 207.355469 1243.511719 205.171875 1240.984375 203.050781 1238.402344 C 200.929688 1235.816406 198.875 1233.183594 196.882812 1230.5 C 194.890625 1227.816406 192.964844 1225.085938 191.109375 1222.304688 C 189.253906 1219.527344 187.464844 1216.703125 185.746094 1213.839844 C 184.027344 1210.972656 182.378906 1208.066406 180.804688 1205.117188 C 179.226562 1202.171875 177.726562 1199.1875 176.296875 1196.167969 C 174.867188 1193.144531 173.511719 1190.089844 172.234375 1187.003906 C 170.953125 1183.917969 169.75 1180.800781 168.625 1177.652344 C 167.5 1174.507812 166.449219 1171.335938 165.480469 1168.136719 C 164.511719 1164.9375 163.617188 1161.71875 162.804688 1158.476562 C 161.992188 1155.234375 161.261719 1151.976562 160.609375 1148.699219 C 159.957031 1145.421875 159.386719 1142.128906 158.894531 1138.824219 C 158.40625 1135.519531 157.996094 1132.203125 157.667969 1128.878906 C 157.339844 1125.550781 157.09375 1122.21875 156.929688 1118.882812 C 156.765625 1115.542969 156.683594 1112.207031 156.683594 1108.863281 L 156.683594 392.996094 C 156.683594 389.652344 156.765625 386.3125 156.929688 382.976562 C 157.09375 379.636719 157.339844 376.304688 157.667969 372.980469 C 157.996094 369.65625 158.40625 366.339844 158.894531 363.035156 C 159.386719 359.726562 159.957031 356.4375 160.609375 353.160156 C 161.261719 349.882812 161.992188 346.621094 162.804688 343.378906 C 163.617188 340.140625 164.511719 336.917969 165.480469 333.722656 C 166.449219 330.523438 167.5 327.351562 168.625 324.207031 C 169.75 321.058594 170.953125 317.941406 172.234375 314.855469 C 173.511719 311.765625 174.867188 308.714844 176.296875 305.691406 C 177.726562 302.671875 179.226562 299.6875 180.804688 296.738281 C 182.378906 293.792969 184.027344 290.886719 185.746094 288.019531 C 187.464844 285.152344 189.253906 282.332031 191.109375 279.554688 C 192.964844 276.773438 194.890625 274.042969 196.882812 271.359375 C 198.875 268.675781 200.929688 266.042969 203.050781 263.457031 C 205.171875 260.875 207.355469 258.34375 209.597656 255.867188 C 211.84375 253.394531 214.148438 250.972656 216.511719 248.609375 C 218.875 246.246094 221.296875 243.945312 223.773438 241.699219 C 226.25 239.457031 228.78125 237.273438 231.363281 235.152344 C 233.949219 233.035156 236.582031 230.976562 239.269531 228.988281 C 241.953125 226.996094 244.6875 225.074219 247.464844 223.214844 C 250.246094 221.359375 253.070312 219.574219 255.9375 217.855469 C 258.804688 216.136719 261.710938 214.488281 264.660156 212.914062 C 267.609375 211.339844 270.59375 209.835938 273.613281 208.410156 C 276.636719 206.980469 279.691406 205.625 282.78125 204.347656 C 285.867188 203.070312 288.988281 201.867188 292.132812 200.742188 C 295.28125 199.613281 298.457031 198.566406 301.652344 197.597656 C 304.851562 196.625 308.074219 195.734375 311.316406 194.921875 C 314.558594 194.113281 317.820312 193.378906 321.097656 192.726562 C 324.378906 192.074219 327.671875 191.503906 330.976562 191.015625 C 334.285156 190.523438 337.601562 190.113281 340.925781 189.789062 C 344.253906 189.460938 347.585938 189.214844 350.925781 189.050781 C 354.265625 188.886719 357.605469 188.804688 360.949219 188.804688 Z M 360.949219 188.804688 " fill-opacity="1" fill-rule="nonzero"/></g></g><g clip-path="url(#302d466516)"><g clip-path="url(#9de07f76be)"><path fill="#31a8ff" d="M 416.421875 977.199219 L 416.421875 482.917969 C 416.421875 479.316406 417.96875 477.503906 421.066406 477.503906 C 429.308594 477.503906 436.835938 477.382812 448.191406 477.117188 C 459.53125 476.863281 471.785156 476.605469 484.945312 476.34375 C 498.101562 476.089844 512.03125 475.828125 526.734375 475.570312 C 541.433594 475.316406 556.003906 475.1875 570.449219 475.179688 C 609.648438 475.179688 642.664062 480.082031 669.496094 489.878906 C 681.597656 493.972656 693.101562 499.34375 704.003906 506 C 714.90625 512.660156 724.941406 520.433594 734.109375 529.328125 C 741.882812 537.039062 748.738281 545.488281 754.671875 554.6875 C 760.609375 563.882812 765.492188 573.605469 769.316406 583.863281 C 772.9375 593.839844 775.65625 604.0625 777.476562 614.519531 C 779.296875 624.976562 780.1875 635.515625 780.152344 646.128906 C 780.152344 687.394531 770.609375 721.425781 751.523438 748.234375 C 746.746094 754.925781 741.492188 761.214844 735.757812 767.105469 C 730.023438 772.992188 723.875 778.414062 717.3125 783.367188 C 710.75 788.320312 703.851562 792.746094 696.613281 796.644531 C 689.378906 800.546875 681.886719 803.878906 674.140625 806.636719 C 641.640625 818.757812 605.527344 822.871094 565.808594 822.871094 C 554.457031 822.871094 546.460938 822.742188 541.820312 822.484375 C 537.179688 822.226562 530.214844 822.097656 520.929688 822.09375 L 520.929688 976.425781 C 520.996094 976.898438 521.007812 977.371094 520.964844 977.847656 C 520.921875 978.324219 520.828125 978.789062 520.675781 979.242188 C 520.523438 979.695312 520.324219 980.125 520.070312 980.53125 C 519.820312 980.9375 519.527344 981.308594 519.1875 981.644531 C 518.851562 981.984375 518.476562 982.277344 518.070312 982.527344 C 517.664062 982.78125 517.234375 982.980469 516.78125 983.132812 C 516.328125 983.285156 515.863281 983.378906 515.386719 983.421875 C 514.910156 983.464844 514.4375 983.453125 513.964844 983.386719 L 421.835938 983.386719 C 418.222656 983.386719 416.421875 981.332031 416.421875 977.199219 Z M 520.929688 570.324219 L 520.929688 731.539062 C 527.625 732.058594 533.816406 732.316406 539.5 732.3125 L 565.035156 732.3125 C 583.9375 732.25 602.378906 729.304688 620.363281 723.484375 C 624.175781 722.351562 627.886719 720.953125 631.5 719.289062 C 635.113281 717.628906 638.589844 715.714844 641.929688 713.554688 C 645.269531 711.394531 648.4375 709.007812 651.4375 706.394531 C 654.433594 703.78125 657.230469 700.96875 659.824219 697.957031 C 669.882812 686.101562 674.914062 669.597656 674.914062 648.453125 C 675.015625 644.730469 674.855469 641.019531 674.425781 637.320312 C 673.996094 633.625 673.308594 629.972656 672.359375 626.375 C 671.410156 622.773438 670.207031 619.261719 668.757812 615.832031 C 667.304688 612.402344 665.617188 609.09375 663.691406 605.90625 C 661.671875 602.828125 659.429688 599.917969 656.960938 597.183594 C 654.496094 594.445312 651.835938 591.914062 648.980469 589.585938 C 646.125 587.253906 643.109375 585.15625 639.933594 583.289062 C 636.757812 581.421875 633.457031 579.808594 630.035156 578.449219 C 621.039062 574.953125 611.789062 572.390625 602.277344 570.765625 C 592.769531 569.136719 583.191406 568.472656 573.546875 568.777344 C 561.164062 568.777344 550.203125 568.90625 540.660156 569.164062 C 531.109375 569.429688 524.53125 569.816406 520.929688 570.324219 Z M 520.929688 570.324219 " fill-opacity="1" fill-rule="nonzero"/></g></g><g clip-path="url(#03cd11c6de)"><g clip-path="url(#ae193e2cb1)"><path fill="#31a8ff" d="M 1079.339844 702.226562 C 1064.730469 694.722656 1049.382812 689.308594 1033.296875 685.980469 C 1015.601562 681.921875 997.675781 679.859375 979.519531 679.792969 C 969.675781 679.527344 960.003906 680.6875 950.5 683.273438 C 947.492188 683.945312 944.691406 685.109375 942.097656 686.773438 C 939.503906 688.433594 937.277344 690.492188 935.410156 692.941406 C 934.148438 694.90625 933.191406 697.003906 932.53125 699.242188 C 931.875 701.476562 931.546875 703.761719 931.542969 706.09375 C 931.613281 708.355469 932.046875 710.546875 932.839844 712.664062 C 933.636719 714.785156 934.75 716.71875 936.183594 718.46875 C 940.75 723.808594 946.167969 728.0625 952.433594 731.234375 C 963.476562 737.175781 974.824219 742.460938 986.480469 747.089844 C 1012.546875 755.8125 1037.179688 767.542969 1060.378906 782.285156 C 1068.253906 787.25 1075.398438 793.105469 1081.8125 799.847656 C 1088.230469 806.589844 1093.726562 814.015625 1098.296875 822.121094 C 1102.140625 829.796875 1105.011719 837.820312 1106.910156 846.195312 C 1108.804688 854.566406 1109.675781 863.042969 1109.515625 871.628906 C 1109.632812 877.261719 1109.320312 882.871094 1108.582031 888.457031 C 1107.84375 894.046875 1106.6875 899.542969 1105.113281 904.953125 C 1103.539062 910.367188 1101.5625 915.625 1099.1875 920.738281 C 1096.8125 925.847656 1094.066406 930.75 1090.945312 935.441406 C 1087.605469 940.210938 1083.9375 944.714844 1079.949219 948.957031 C 1075.964844 953.203125 1071.695312 957.140625 1067.144531 960.773438 C 1062.59375 964.40625 1057.804688 967.695312 1052.785156 970.644531 C 1047.761719 973.59375 1042.554688 976.167969 1037.164062 978.371094 C 1013.6875 988.683594 984.667969 993.839844 950.113281 993.84375 C 928.101562 994.066406 906.304688 992.003906 884.726562 987.65625 C 867.707031 984.535156 851.328125 979.378906 835.589844 972.183594 C 834.746094 971.75 833.976562 971.203125 833.285156 970.546875 C 832.597656 969.890625 832.011719 969.152344 831.53125 968.332031 C 831.050781 967.507812 830.695312 966.636719 830.464844 965.714844 C 830.234375 964.789062 830.136719 963.851562 830.175781 962.902344 L 830.175781 879.363281 C 830.078125 878.527344 830.207031 877.730469 830.554688 876.96875 C 830.898438 876.203125 831.417969 875.582031 832.109375 875.109375 C 832.441406 874.921875 832.796875 874.785156 833.167969 874.707031 C 833.542969 874.625 833.917969 874.601562 834.296875 874.636719 C 834.679688 874.671875 835.042969 874.761719 835.398438 874.910156 C 835.75 875.054688 836.070312 875.25 836.363281 875.496094 C 845.621094 880.949219 855.246094 885.65625 865.234375 889.613281 C 875.226562 893.570312 885.464844 896.726562 895.949219 899.085938 C 914.492188 903.734375 933.320312 906.183594 952.433594 906.433594 C 970.484375 906.433594 983.769531 904.113281 992.285156 899.472656 C 993.242188 899.035156 994.160156 898.53125 995.046875 897.960938 C 995.929688 897.390625 996.765625 896.761719 997.558594 896.070312 C 998.351562 895.378906 999.089844 894.632812 999.777344 893.835938 C 1000.460938 893.039062 1001.085938 892.195312 1001.648438 891.308594 C 1002.214844 890.421875 1002.710938 889.496094 1003.140625 888.539062 C 1003.570312 887.578125 1003.929688 886.59375 1004.21875 885.582031 C 1004.507812 884.570312 1004.71875 883.542969 1004.859375 882.503906 C 1005 881.460938 1005.066406 880.414062 1005.054688 879.363281 C 1005.054688 872.667969 1001.183594 866.222656 993.445312 860.023438 C 985.710938 853.835938 969.976562 846.359375 946.242188 837.589844 C 921.835938 829.097656 899.007812 817.496094 877.761719 802.785156 C 870.199219 797.527344 863.347656 791.464844 857.203125 784.605469 C 851.058594 777.746094 845.789062 770.265625 841.394531 762.171875 C 837.589844 754.550781 834.738281 746.589844 832.839844 738.285156 C 830.945312 729.980469 830.054688 721.570312 830.175781 713.054688 C 830.164062 707.960938 830.503906 702.894531 831.191406 697.847656 C 831.878906 692.800781 832.910156 687.828125 834.28125 682.921875 C 835.65625 678.019531 837.359375 673.234375 839.390625 668.5625 C 841.425781 663.894531 843.769531 659.386719 846.421875 655.039062 C 849.449219 650.257812 852.800781 645.714844 856.480469 641.410156 C 860.160156 637.109375 864.128906 633.09375 868.382812 629.359375 C 872.640625 625.628906 877.144531 622.222656 881.890625 619.136719 C 886.636719 616.050781 891.582031 613.324219 896.722656 610.949219 C 919.414062 599.613281 947.789062 593.941406 981.839844 593.933594 C 1001.8125 593.773438 1021.675781 595.191406 1041.421875 598.1875 C 1055.769531 600.007812 1069.597656 603.746094 1082.902344 609.402344 C 1083.96875 609.707031 1084.910156 610.234375 1085.726562 610.984375 C 1086.542969 611.730469 1087.148438 612.625 1087.546875 613.65625 C 1088.070312 615.554688 1088.328125 617.488281 1088.320312 619.457031 L 1088.320312 697.585938 C 1088.375 698.507812 1088.195312 699.386719 1087.78125 700.214844 C 1087.367188 701.042969 1086.773438 701.714844 1086 702.226562 C 1084.949219 702.746094 1083.839844 703.007812 1082.667969 703.007812 C 1081.496094 703.007812 1080.386719 702.746094 1079.339844 702.226562 Z M 1079.339844 702.226562 " fill-opacity="1" fill-rule="nonzero"/></g></g></svg>