<svg xmlns="http://www.w3.org/2000/svg" xmlns:xlink="http://www.w3.org/1999/xlink" width="2000" zoomAndPan="magnify" viewBox="0 0 1500 1499.999933" height="2000" preserveAspectRatio="xMidYMid meet" version="1.0"><defs><clipPath id="7b406d8519"><path d="M 750 0 C 335.785156 0 0 335.785156 0 750 C 0 1164.214844 335.785156 1500 750 1500 C 1164.214844 1500 1500 1164.214844 1500 750 C 1500 335.785156 1164.214844 0 750 0 Z M 750 0 " clip-rule="nonzero"/></clipPath><clipPath id="c164654e00"><path d="M 0 0 L 1500 0 L 1500 1500 L 0 1500 Z M 0 0 " clip-rule="nonzero"/></clipPath><clipPath id="276cd58806"><path d="M 750 0 C 335.785156 0 0 335.785156 0 750 C 0 1164.214844 335.785156 1500 750 1500 C 1164.214844 1500 1500 1164.214844 1500 750 C 1500 335.785156 1164.214844 0 750 0 Z M 750 0 " clip-rule="nonzero"/></clipPath><clipPath id="4b287631be"><rect x="0" width="1500" y="0" height="1500"/></clipPath><clipPath id="4020f4fe81"><path d="M 394.316406 393.285156 L 1124.066406 393.285156 L 1124.066406 1112.535156 L 394.316406 1112.535156 Z M 394.316406 393.285156 " clip-rule="nonzero"/></clipPath><clipPath id="cae1e190b2"><path d="M 394.316406 468.285156 L 394.316406 1037.714844 C 394.316406 1079.136719 427.894531 1112.714844 469.316406 1112.714844 L 1049.433594 1112.714844 C 1090.855469 1112.714844 1124.433594 1079.136719 1124.433594 1037.714844 L 1124.433594 468.285156 C 1124.433594 426.863281 1090.855469 393.285156 1049.433594 393.285156 L 469.316406 393.285156 C 427.894531 393.285156 394.316406 426.863281 394.316406 468.285156 Z M 394.316406 468.285156 " clip-rule="nonzero"/></clipPath><clipPath id="4159fe4c7d"><path d="M 468 435 L 1018 435 L 1018 1067 L 468 1067 Z M 468 435 " clip-rule="nonzero"/></clipPath><clipPath id="de0eff13dd"><path d="M 394.316406 468.285156 L 394.316406 1037.714844 C 394.316406 1079.136719 427.894531 1112.714844 469.316406 1112.714844 L 1049.433594 1112.714844 C 1090.855469 1112.714844 1124.433594 1079.136719 1124.433594 1037.714844 L 1124.433594 468.285156 C 1124.433594 426.863281 1090.855469 393.285156 1049.433594 393.285156 L 469.316406 393.285156 C 427.894531 393.285156 394.316406 426.863281 394.316406 468.285156 Z M 394.316406 468.285156 " clip-rule="nonzero"/></clipPath></defs><g clip-path="url(#7b406d8519)"><g transform="matrix(1, 0, 0, 1, 0, 0.000000000000112861)"><g clip-path="url(#4b287631be)"><g clip-path="url(#c164654e00)"><g clip-path="url(#276cd58806)"><rect x="-330" width="2160" fill="#a7f175" height="2159.999904" y="-329.999985" fill-opacity="1"/></g></g></g></g></g><g clip-path="url(#4020f4fe81)"><g clip-path="url(#cae1e190b2)"><path fill="#a7f175" d="M 264.28125 263.960938 L 1236.28125 263.960938 L 1236.28125 1235.960938 L 264.28125 1235.960938 Z M 264.28125 263.960938 " fill-opacity="1" fill-rule="evenodd"/></g></g><g clip-path="url(#4159fe4c7d)"><g clip-path="url(#de0eff13dd)"><path fill="#000000" d="M 721.558594 936.175781 C 679.386719 936.175781 652.558594 910.589844 652.558594 878.144531 C 652.558594 739.28125 1017.722656 711.480469 1017.722656 564.011719 C 1017.722656 474.050781 913.511719 435.277344 780.484375 435.277344 C 699.566406 435.277344 608.074219 450.253906 523.101562 477.050781 L 523.101562 652.976562 C 648.320312 561.769531 787.453125 522.726562 877.070312 522.726562 C 933.421875 522.726562 971.65625 538.449219 971.65625 566.621094 C 971.65625 682.6875 468.027344 664.296875 468.027344 915.089844 C 468.027344 1011.222656 534.128906 1066.296875 627.125 1066.296875 C 767.789062 1066.296875 874.1875 929.597656 953.785156 762.964844 L 969.914062 768.757812 C 927.992188 870.585938 841.238281 982.242188 824.34375 1054.015625 L 1005.4375 1054.015625 L 1005.4375 682.691406 L 963.613281 682.691406 C 902.90625 814.613281 813.9375 936.179688 721.558594 936.179688 " fill-opacity="1" fill-rule="nonzero"/></g></g></svg>