<svg xmlns="http://www.w3.org/2000/svg" xmlns:xlink="http://www.w3.org/1999/xlink" width="2000" zoomAndPan="magnify" viewBox="0 0 1500 1499.999933" height="2000" preserveAspectRatio="xMidYMid meet" version="1.0"><defs><clipPath id="c5fd589e74"><path d="M 750 0 C 335.785156 0 0 335.785156 0 750 C 0 1164.214844 335.785156 1500 750 1500 C 1164.214844 1500 1500 1164.214844 1500 750 C 1500 335.785156 1164.214844 0 750 0 Z M 750 0 " clip-rule="nonzero"/></clipPath><clipPath id="1a5cc6d0b6"><path d="M 0 0 L 1500 0 L 1500 1500 L 0 1500 Z M 0 0 " clip-rule="nonzero"/></clipPath><clipPath id="da0cb65d10"><path d="M 750 0 C 335.785156 0 0 335.785156 0 750 C 0 1164.214844 335.785156 1500 750 1500 C 1164.214844 1500 1500 1164.214844 1500 750 C 1500 335.785156 1164.214844 0 750 0 Z M 750 0 " clip-rule="nonzero"/></clipPath><clipPath id="df7eb04b69"><rect x="0" width="1500" y="0" height="1500"/></clipPath><clipPath id="609ec9e4d9"><path d="M 437.8125 502 L 1061.8125 502 L 1061.8125 997 L 437.8125 997 Z M 437.8125 502 " clip-rule="nonzero"/></clipPath></defs><g clip-path="url(#c5fd589e74)"><g transform="matrix(1, 0, 0, 1, 0, 0.000000000000112861)"><g clip-path="url(#df7eb04b69)"><g clip-path="url(#1a5cc6d0b6)"><g clip-path="url(#da0cb65d10)"><rect x="-330" width="2160" fill="#ffffff" height="2159.999904" y="-329.999985" fill-opacity="1"/></g></g></g></g></g><g clip-path="url(#609ec9e4d9)"><path fill="#000000" d="M 1066.726562 605.304688 L 1066.726562 507.261719 L 948.816406 569.21875 L 948.816406 565.472656 C 948.871094 526.34375 920.789062 502.789062 880.230469 502.789062 L 506.453125 502.789062 C 463.632812 502.8125 437.8125 526.394531 437.8125 565.472656 L 437.8125 664.535156 L 603.019531 749.8125 L 437.8125 836.03125 L 437.8125 934.828125 C 437.8125 973.285156 463.8125 996.8125 506.453125 996.8125 L 880.152344 996.8125 C 920.710938 996.8125 948.765625 973.230469 948.765625 934.882812 L 948.765625 929.761719 L 1066.703125 992.394531 L 1066.703125 892.867188 L 792.453125 749.8125 L 1066.753906 605.332031 Z M 697.347656 798.511719 L 900.066406 904.667969 L 493.894531 904.667969 Z M 898.613281 594.984375 L 697.320312 700.464844 L 493.871094 594.984375 Z M 898.613281 594.984375 " fill-opacity="1" fill-rule="evenodd"/></g></svg>