<svg xmlns="http://www.w3.org/2000/svg" xmlns:xlink="http://www.w3.org/1999/xlink" width="2000" zoomAndPan="magnify" viewBox="0 0 1500 1499.999933" height="2000" preserveAspectRatio="xMidYMid meet" version="1.0"><defs><clipPath id="c3188a82db"><path d="M 750 0 C 335.785156 0 0 335.785156 0 750 C 0 1164.214844 335.785156 1500 750 1500 C 1164.214844 1500 1500 1164.214844 1500 750 C 1500 335.785156 1164.214844 0 750 0 Z M 750 0 " clip-rule="nonzero"/></clipPath><clipPath id="3726388696"><path d="M 0 0 L 1500 0 L 1500 1500 L 0 1500 Z M 0 0 " clip-rule="nonzero"/></clipPath><clipPath id="afc7d5c04e"><path d="M 750 0 C 335.785156 0 0 335.785156 0 750 C 0 1164.214844 335.785156 1500 750 1500 C 1164.214844 1500 1500 1164.214844 1500 750 C 1500 335.785156 1164.214844 0 750 0 Z M 750 0 " clip-rule="nonzero"/></clipPath><clipPath id="78f06a40b0"><rect x="0" width="1500" y="0" height="1500"/></clipPath><clipPath id="695e3432ed"><path d="M 573 447.296875 L 927 447.296875 L 927 1052.546875 L 573 1052.546875 Z M 573 447.296875 " clip-rule="nonzero"/></clipPath></defs><g clip-path="url(#c3188a82db)"><g transform="matrix(1, 0, 0, 1, 0, 0.000000000000112861)"><g clip-path="url(#78f06a40b0)"><g clip-path="url(#3726388696)"><g clip-path="url(#afc7d5c04e)"><rect x="-330" width="2160" fill="#ffffff" height="2159.999904" y="-329.999985" fill-opacity="1"/></g></g></g></g></g><g clip-path="url(#695e3432ed)"><path fill="#000000" d="M 573.390625 447.296875 L 699.484375 447.296875 L 699.484375 1052.546875 L 573.390625 1052.546875 Z M 800.359375 447.296875 L 926.453125 447.296875 L 926.453125 1052.546875 L 800.359375 1052.546875 Z M 800.359375 447.296875 " fill-opacity="1" fill-rule="evenodd"/></g></svg>