<svg xmlns="http://www.w3.org/2000/svg" xmlns:xlink="http://www.w3.org/1999/xlink" width="2000" zoomAndPan="magnify" viewBox="0 0 1500 1499.999933" height="2000" preserveAspectRatio="xMidYMid meet" version="1.0"><defs><clipPath id="35425ba1b5"><path d="M 750 0 C 335.785156 0 0 335.785156 0 750 C 0 1164.214844 335.785156 1500 750 1500 C 1164.214844 1500 1500 1164.214844 1500 750 C 1500 335.785156 1164.214844 0 750 0 Z M 750 0 " clip-rule="nonzero"/></clipPath><clipPath id="f5c6d829f8"><path d="M 0 0 L 1500 0 L 1500 1500 L 0 1500 Z M 0 0 " clip-rule="nonzero"/></clipPath><clipPath id="578b307648"><path d="M 750 0 C 335.785156 0 0 335.785156 0 750 C 0 1164.214844 335.785156 1500 750 1500 C 1164.214844 1500 1500 1164.214844 1500 750 C 1500 335.785156 1164.214844 0 750 0 Z M 750 0 " clip-rule="nonzero"/></clipPath><clipPath id="7b04da47ba"><rect x="0" width="1500" y="0" height="1500"/></clipPath><clipPath id="4a04a797ea"><path d="M 523 862 L 750 862 L 750 1088.890625 L 523 1088.890625 Z M 523 862 " clip-rule="nonzero"/></clipPath><clipPath id="f9fbad7ac2"><path d="M 523 410.894531 L 750 410.894531 L 750 637 L 523 637 Z M 523 410.894531 " clip-rule="nonzero"/></clipPath><clipPath id="c87eec7866"><path d="M 749 410.894531 L 976 410.894531 L 976 637 L 749 637 Z M 749 410.894531 " clip-rule="nonzero"/></clipPath></defs><g clip-path="url(#35425ba1b5)"><g transform="matrix(1, 0, 0, 1, 0, 0.000000000000112861)"><g clip-path="url(#7b04da47ba)"><g clip-path="url(#f5c6d829f8)"><g clip-path="url(#578b307648)"><rect x="-330" width="2160" fill="#ffffff" height="2159.999904" y="-329.999985" fill-opacity="1"/></g></g></g></g></g><path fill="#19bcfe" d="M 975.894531 749.890625 C 975.894531 751.742188 975.847656 753.589844 975.757812 755.4375 C 975.664062 757.285156 975.53125 759.128906 975.347656 760.96875 C 975.167969 762.808594 974.941406 764.644531 974.667969 766.472656 C 974.398438 768.300781 974.082031 770.125 973.722656 771.9375 C 973.359375 773.75 972.957031 775.554688 972.507812 777.347656 C 972.058594 779.144531 971.5625 780.925781 971.027344 782.695312 C 970.488281 784.464844 969.910156 786.21875 969.289062 787.960938 C 968.664062 789.703125 968 791.425781 967.292969 793.136719 C 966.582031 794.84375 965.835938 796.535156 965.042969 798.207031 C 964.253906 799.878906 963.421875 801.53125 962.550781 803.160156 C 961.679688 804.792969 960.765625 806.398438 959.816406 807.984375 C 958.867188 809.574219 957.875 811.132812 956.847656 812.671875 C 955.820312 814.210938 954.757812 815.722656 953.65625 817.207031 C 952.554688 818.691406 951.417969 820.148438 950.242188 821.578125 C 949.070312 823.007812 947.863281 824.410156 946.621094 825.777344 C 945.378906 827.148438 944.101562 828.488281 942.796875 829.796875 C 941.488281 831.101562 940.148438 832.378906 938.777344 833.621094 C 937.410156 834.863281 936.007812 836.070312 934.578125 837.242188 C 933.148438 838.414062 931.691406 839.554688 930.207031 840.65625 C 928.722656 841.757812 927.210938 842.820312 925.671875 843.847656 C 924.132812 844.875 922.574219 845.863281 920.988281 846.816406 C 919.398438 847.765625 917.792969 848.679688 916.160156 849.550781 C 914.53125 850.421875 912.878906 851.253906 911.207031 852.042969 C 909.535156 852.835938 907.84375 853.582031 906.136719 854.289062 C 904.425781 855 902.703125 855.664062 900.960938 856.285156 C 899.21875 856.910156 897.464844 857.488281 895.695312 858.027344 C 893.925781 858.5625 892.144531 859.058594 890.347656 859.507812 C 888.554688 859.957031 886.75 860.359375 884.9375 860.722656 C 883.125 861.082031 881.300781 861.398438 879.472656 861.667969 C 877.644531 861.941406 875.808594 862.167969 873.96875 862.347656 C 872.128906 862.53125 870.285156 862.664062 868.4375 862.757812 C 866.589844 862.847656 864.742188 862.890625 862.894531 862.890625 C 861.042969 862.890625 859.195312 862.847656 857.347656 862.757812 C 855.5 862.664062 853.65625 862.53125 851.816406 862.347656 C 849.976562 862.167969 848.140625 861.941406 846.3125 861.667969 C 844.484375 861.398438 842.660156 861.082031 840.847656 860.722656 C 839.035156 860.359375 837.230469 859.957031 835.4375 859.507812 C 833.640625 859.058594 831.859375 858.5625 830.089844 858.027344 C 828.320312 857.488281 826.566406 856.910156 824.824219 856.285156 C 823.082031 855.664062 821.359375 855 819.648438 854.289062 C 817.941406 853.582031 816.25 852.835938 814.578125 852.042969 C 812.90625 851.253906 811.257812 850.421875 809.625 849.550781 C 807.992188 848.679688 806.386719 847.765625 804.800781 846.816406 C 803.214844 845.863281 801.652344 844.875 800.113281 843.847656 C 798.574219 842.820312 797.0625 841.757812 795.578125 840.65625 C 794.09375 839.554688 792.636719 838.414062 791.207031 837.242188 C 789.777344 836.070312 788.375 834.863281 787.007812 833.621094 C 785.636719 832.378906 784.296875 831.101562 782.988281 829.796875 C 781.683594 828.488281 780.40625 827.148438 779.164062 825.777344 C 777.921875 824.410156 776.714844 823.007812 775.542969 821.578125 C 774.371094 820.148438 773.230469 818.691406 772.128906 817.207031 C 771.027344 815.722656 769.964844 814.210938 768.9375 812.671875 C 767.910156 811.132812 766.921875 809.574219 765.96875 807.984375 C 765.019531 806.398438 764.105469 804.792969 763.234375 803.160156 C 762.363281 801.53125 761.53125 799.878906 760.742188 798.207031 C 759.953125 796.535156 759.203125 794.84375 758.496094 793.136719 C 757.785156 791.425781 757.121094 789.703125 756.5 787.960938 C 755.875 786.21875 755.296875 784.464844 754.757812 782.695312 C 754.222656 780.925781 753.730469 779.144531 753.277344 777.347656 C 752.828125 775.554688 752.425781 773.75 752.0625 771.9375 C 751.703125 770.125 751.386719 768.300781 751.117188 766.472656 C 750.84375 764.644531 750.617188 762.808594 750.4375 760.96875 C 750.253906 759.128906 750.121094 757.285156 750.027344 755.4375 C 749.9375 753.589844 749.894531 751.742188 749.894531 749.890625 C 749.894531 748.042969 749.9375 746.195312 750.027344 744.347656 C 750.121094 742.5 750.253906 740.65625 750.4375 738.816406 C 750.617188 736.976562 750.84375 735.140625 751.117188 733.3125 C 751.386719 731.484375 751.703125 729.660156 752.0625 727.847656 C 752.425781 726.035156 752.828125 724.230469 753.277344 722.4375 C 753.730469 720.640625 754.222656 718.859375 754.757812 717.089844 C 755.296875 715.320312 755.875 713.566406 756.5 711.824219 C 757.121094 710.082031 757.785156 708.359375 758.496094 706.648438 C 759.203125 704.941406 759.953125 703.25 760.742188 701.578125 C 761.53125 699.90625 762.363281 698.253906 763.234375 696.625 C 764.105469 694.992188 765.019531 693.386719 765.96875 691.800781 C 766.921875 690.210938 767.910156 688.652344 768.9375 687.113281 C 769.964844 685.574219 771.027344 684.0625 772.128906 682.578125 C 773.230469 681.09375 774.371094 679.636719 775.542969 678.207031 C 776.714844 676.777344 777.921875 675.375 779.164062 674.007812 C 780.40625 672.636719 781.683594 671.296875 782.988281 669.988281 C 784.296875 668.683594 785.636719 667.40625 787.007812 666.164062 C 788.375 664.921875 789.777344 663.714844 791.207031 662.542969 C 792.636719 661.371094 794.09375 660.230469 795.578125 659.128906 C 797.0625 658.027344 798.574219 656.964844 800.113281 655.9375 C 801.652344 654.910156 803.214844 653.921875 804.800781 652.96875 C 806.386719 652.019531 807.992188 651.105469 809.625 650.234375 C 811.257812 649.363281 812.90625 648.53125 814.578125 647.742188 C 816.25 646.949219 817.941406 646.203125 819.648438 645.496094 C 821.359375 644.785156 823.082031 644.121094 824.824219 643.5 C 826.566406 642.875 828.320312 642.296875 830.089844 641.757812 C 831.859375 641.222656 833.640625 640.726562 835.4375 640.277344 C 837.230469 639.828125 839.035156 639.425781 840.847656 639.0625 C 842.660156 638.703125 844.484375 638.386719 846.3125 638.117188 C 848.140625 637.84375 849.976562 637.617188 851.816406 637.4375 C 853.65625 637.253906 855.5 637.121094 857.347656 637.027344 C 859.195312 636.9375 861.042969 636.894531 862.894531 636.894531 C 864.742188 636.894531 866.589844 636.9375 868.4375 637.027344 C 870.285156 637.121094 872.128906 637.253906 873.96875 637.4375 C 875.808594 637.617188 877.644531 637.84375 879.472656 638.117188 C 881.300781 638.386719 883.125 638.703125 884.9375 639.0625 C 886.75 639.425781 888.554688 639.828125 890.347656 640.277344 C 892.144531 640.726562 893.925781 641.222656 895.695312 641.757812 C 897.464844 642.296875 899.21875 642.875 900.960938 643.5 C 902.703125 644.121094 904.425781 644.785156 906.136719 645.496094 C 907.84375 646.203125 909.535156 646.949219 911.207031 647.742188 C 912.878906 648.53125 914.53125 649.363281 916.160156 650.234375 C 917.792969 651.105469 919.398438 652.019531 920.988281 652.96875 C 922.574219 653.921875 924.132812 654.910156 925.671875 655.9375 C 927.210938 656.964844 928.722656 658.027344 930.207031 659.128906 C 931.691406 660.230469 933.148438 661.371094 934.578125 662.542969 C 936.007812 663.714844 937.410156 664.921875 938.777344 666.164062 C 940.148438 667.40625 941.488281 668.683594 942.796875 669.988281 C 944.101562 671.296875 945.378906 672.636719 946.621094 674.007812 C 947.863281 675.375 949.070312 676.777344 950.242188 678.207031 C 951.417969 679.636719 952.554688 681.09375 953.65625 682.578125 C 954.757812 684.0625 955.820312 685.574219 956.847656 687.113281 C 957.875 688.652344 958.867188 690.210938 959.816406 691.800781 C 960.765625 693.386719 961.679688 694.992188 962.550781 696.625 C 963.421875 698.253906 964.253906 699.90625 965.042969 701.578125 C 965.835938 703.25 966.582031 704.941406 967.292969 706.648438 C 968 708.359375 968.664062 710.082031 969.289062 711.824219 C 969.910156 713.566406 970.488281 715.320312 971.027344 717.089844 C 971.5625 718.859375 972.058594 720.640625 972.507812 722.4375 C 972.957031 724.230469 973.359375 726.035156 973.722656 727.847656 C 974.082031 729.660156 974.398438 731.484375 974.667969 733.3125 C 974.941406 735.140625 975.167969 736.976562 975.347656 738.816406 C 975.53125 740.65625 975.664062 742.5 975.757812 744.347656 C 975.847656 746.195312 975.894531 748.042969 975.894531 749.890625 Z M 975.894531 749.890625 " fill-opacity="1" fill-rule="nonzero"/><g clip-path="url(#4a04a797ea)"><path fill="#09cf83" d="M 636.894531 1088.890625 C 699.300781 1088.890625 749.894531 1038.300781 749.894531 975.890625 C 749.894531 958.855469 749.894531 921.191406 749.894531 862.890625 C 699.128906 862.890625 661.460938 862.890625 636.894531 862.890625 C 574.484375 862.890625 523.894531 913.484375 523.894531 975.890625 C 523.894531 1038.300781 574.484375 1088.890625 636.894531 1088.890625 Z M 636.894531 1088.890625 " fill-opacity="1" fill-rule="evenodd"/></g><path fill="#a259ff" d="M 636.894531 862.890625 C 657.695312 862.890625 695.363281 862.890625 749.894531 862.890625 L 749.894531 636.894531 C 695.363281 636.894531 657.695312 636.894531 636.894531 636.894531 C 574.484375 636.894531 523.894531 687.484375 523.894531 749.890625 C 523.894531 812.300781 574.484375 862.890625 636.894531 862.890625 Z M 636.894531 862.890625 " fill-opacity="1" fill-rule="evenodd"/><g clip-path="url(#f9fbad7ac2)"><path fill="#f24e1e" d="M 636.894531 636.894531 C 657.695312 636.894531 695.363281 636.894531 749.894531 636.894531 L 749.894531 410.894531 C 695.363281 410.894531 657.695312 410.894531 636.894531 410.894531 C 574.484375 410.894531 523.894531 461.484375 523.894531 523.894531 C 523.894531 586.300781 574.484375 636.894531 636.894531 636.894531 Z M 636.894531 636.894531 " fill-opacity="1" fill-rule="evenodd"/></g><g clip-path="url(#c87eec7866)"><path fill="#ff7262" d="M 862.894531 636.894531 L 749.894531 636.894531 L 749.894531 410.894531 L 862.894531 410.894531 C 925.300781 410.894531 975.894531 461.484375 975.894531 523.894531 C 975.894531 586.300781 925.300781 636.894531 862.894531 636.894531 Z M 862.894531 636.894531 " fill-opacity="1" fill-rule="evenodd"/></g></svg>