<svg xmlns="http://www.w3.org/2000/svg" xmlns:xlink="http://www.w3.org/1999/xlink" width="2000" zoomAndPan="magnify" viewBox="0 0 1500 1499.999933" height="2000" preserveAspectRatio="xMidYMid meet" version="1.0"><defs><clipPath id="3eba8e964c"><path d="M 750 0 C 335.785156 0 0 335.785156 0 750 C 0 1164.214844 335.785156 1500 750 1500 C 1164.214844 1500 1500 1164.214844 1500 750 C 1500 335.785156 1164.214844 0 750 0 Z M 750 0 " clip-rule="nonzero"/></clipPath><clipPath id="4cdebe3f30"><path d="M 0 0 L 1500 0 L 1500 1500 L 0 1500 Z M 0 0 " clip-rule="nonzero"/></clipPath><clipPath id="eca37a5feb"><path d="M 750 0 C 335.785156 0 0 335.785156 0 750 C 0 1164.214844 335.785156 1500 750 1500 C 1164.214844 1500 1500 1164.214844 1500 750 C 1500 335.785156 1164.214844 0 750 0 Z M 750 0 " clip-rule="nonzero"/></clipPath><clipPath id="9d9b6386a6"><rect x="0" width="1500" y="0" height="1500"/></clipPath></defs><g clip-path="url(#3eba8e964c)"><g transform="matrix(1, 0, 0, 1, 0, 0.000000000000112861)"><g clip-path="url(#9d9b6386a6)"><g clip-path="url(#4cdebe3f30)"><g clip-path="url(#eca37a5feb)"><rect x="-330" width="2160" fill="#ffffff" height="2159.999904" y="-329.999985" fill-opacity="1"/></g></g></g></g></g><path fill="#000000" d="M 480.742188 397.570312 L 1019.585938 397.570312 L 1019.585938 666.992188 L 750.164062 666.992188 Z M 480.742188 666.992188 L 750.164062 666.992188 L 1019.585938 934.585938 L 480.742188 934.585938 Z M 480.742188 934.585938 L 750.164062 934.585938 L 750.164062 1204.007812 Z M 480.742188 934.585938 " fill-opacity="1" fill-rule="nonzero"/></svg>