<svg xmlns="http://www.w3.org/2000/svg" xmlns:xlink="http://www.w3.org/1999/xlink" width="2000" zoomAndPan="magnify" viewBox="0 0 1500 1499.999933" height="2000" preserveAspectRatio="xMidYMid meet" version="1.0"><defs><clipPath id="854795e2f1"><path d="M 750 0 C 335.785156 0 0 335.785156 0 750 C 0 1164.214844 335.785156 1500 750 1500 C 1164.214844 1500 1500 1164.214844 1500 750 C 1500 335.785156 1164.214844 0 750 0 Z M 750 0 " clip-rule="nonzero"/></clipPath><clipPath id="d725566ce2"><path d="M 0 0 L 1500 0 L 1500 1500 L 0 1500 Z M 0 0 " clip-rule="nonzero"/></clipPath><clipPath id="da36646756"><path d="M 750 0 C 335.785156 0 0 335.785156 0 750 C 0 1164.214844 335.785156 1500 750 1500 C 1164.214844 1500 1500 1164.214844 1500 750 C 1500 335.785156 1164.214844 0 750 0 Z M 750 0 " clip-rule="nonzero"/></clipPath><clipPath id="1af5b8710c"><rect x="0" width="1500" y="0" height="1500"/></clipPath><clipPath id="52397b8cc9"><path d="M 404.984375 419 L 1094.984375 419 L 1094.984375 1082 L 404.984375 1082 Z M 404.984375 419 " clip-rule="nonzero"/></clipPath></defs><g clip-path="url(#854795e2f1)"><g transform="matrix(1, 0, 0, 1, 0, 0.000000000000112861)"><g clip-path="url(#1af5b8710c)"><g clip-path="url(#d725566ce2)"><g clip-path="url(#da36646756)"><rect x="-330" width="2160" fill="#ffffff" height="2159.999904" y="-329.999985" fill-opacity="1"/></g></g></g></g></g><g clip-path="url(#52397b8cc9)"><path fill="#000000" d="M 671.496094 844.574219 L 900.863281 675.035156 C 912.105469 666.695312 928.175781 669.945312 933.554688 682.855469 C 961.730469 750.960938 949.136719 832.785156 893.015625 888.960938 C 836.925781 945.140625 758.839844 957.445312 687.484375 929.386719 L 609.542969 965.523438 C 721.351562 1042.027344 857.109375 1023.109375 941.949219 938.125 C 1009.253906 870.734375 1030.097656 778.878906 1010.605469 696.050781 L 1010.777344 696.25 C 982.515625 574.582031 1017.734375 525.9375 1089.839844 426.488281 C 1091.5625 424.132812 1093.289062 421.773438 1094.984375 419.359375 L 1000.082031 514.378906 L 1000.082031 514.089844 L 671.410156 844.628906 M 624.144531 885.769531 C 543.875 809.007812 557.734375 690.242188 626.1875 621.730469 C 676.816406 571.046875 759.789062 550.34375 832.210938 580.761719 L 909.980469 544.824219 C 893.742188 532.878906 876.214844 523.296875 857.394531 516.074219 C 854.472656 514.878906 851.527344 513.738281 848.5625 512.648438 C 845.597656 511.558594 842.617188 510.527344 839.613281 509.546875 C 836.609375 508.570312 833.589844 507.644531 830.554688 506.777344 C 827.515625 505.910156 824.464844 505.097656 821.398438 504.34375 C 818.332031 503.585938 815.253906 502.886719 812.160156 502.246094 C 809.070312 501.601562 805.964844 501.015625 802.851562 500.488281 C 799.738281 499.960938 796.617188 499.488281 793.488281 499.074219 C 790.355469 498.660156 787.21875 498.304688 784.074219 498.003906 C 780.929688 497.707031 777.78125 497.464844 774.628906 497.28125 C 771.476562 497.097656 768.320312 496.972656 765.164062 496.90625 C 762.007812 496.839844 758.847656 496.828125 755.691406 496.878906 C 752.535156 496.925781 749.378906 497.03125 746.222656 497.195312 C 743.070312 497.363281 739.921875 497.582031 736.773438 497.863281 C 733.628906 498.144531 730.488281 498.480469 727.355469 498.875 C 724.222656 499.273438 721.097656 499.726562 717.980469 500.234375 C 714.863281 500.746094 711.757812 501.3125 708.664062 501.9375 C 705.566406 502.558594 702.484375 503.242188 699.414062 503.976562 C 696.339844 504.714844 693.285156 505.507812 690.242188 506.359375 C 687.203125 507.207031 684.175781 508.113281 681.167969 509.074219 C 678.160156 510.035156 675.167969 511.050781 672.199219 512.121094 C 669.226562 513.191406 666.277344 514.316406 663.347656 515.496094 C 660.417969 516.671875 657.507812 517.90625 654.625 519.191406 C 651.742188 520.476562 648.878906 521.8125 646.042969 523.203125 C 643.210938 524.59375 640.398438 526.039062 637.617188 527.53125 C 634.835938 529.023438 632.082031 530.570312 629.355469 532.164062 C 626.628906 533.757812 623.933594 535.402344 621.269531 537.097656 C 618.601562 538.789062 615.96875 540.53125 613.367188 542.324219 C 610.765625 544.113281 608.199219 545.949219 605.664062 547.835938 C 603.128906 549.71875 600.632812 551.652344 598.167969 553.628906 C 595.703125 555.605469 593.277344 557.625 590.890625 559.691406 C 588.5 561.757812 586.152344 563.863281 583.839844 566.015625 C 581.527344 568.167969 579.257812 570.363281 577.023438 572.597656 C 504.203125 645.507812 481.289062 757.632812 520.617188 853.3125 C 550 924.8125 501.84375 975.386719 453.34375 1026.445312 C 436.121094 1044.558594 418.871094 1062.640625 404.984375 1081.789062 L 624.058594 885.859375 " fill-opacity="1" fill-rule="evenodd"/></g></svg>