<svg xmlns="http://www.w3.org/2000/svg" xmlns:xlink="http://www.w3.org/1999/xlink" width="2000" zoomAndPan="magnify" viewBox="0 0 1500 1499.999933" height="2000" preserveAspectRatio="xMidYMid meet" version="1.0"><defs><clipPath id="9ff2e760a0"><path d="M 750 0 C 335.785156 0 0 335.785156 0 750 C 0 1164.214844 335.785156 1500 750 1500 C 1164.214844 1500 1500 1164.214844 1500 750 C 1500 335.785156 1164.214844 0 750 0 Z M 750 0 " clip-rule="nonzero"/></clipPath><clipPath id="6b270520e7"><path d="M 0 0 L 1500 0 L 1500 1500 L 0 1500 Z M 0 0 " clip-rule="nonzero"/></clipPath><clipPath id="b03d95b8eb"><path d="M 750 0 C 335.785156 0 0 335.785156 0 750 C 0 1164.214844 335.785156 1500 750 1500 C 1164.214844 1500 1500 1164.214844 1500 750 C 1500 335.785156 1164.214844 0 750 0 Z M 750 0 " clip-rule="nonzero"/></clipPath><clipPath id="b14ff9f2d3"><rect x="0" width="1500" y="0" height="1500"/></clipPath></defs><g clip-path="url(#9ff2e760a0)"><g transform="matrix(1, 0, 0, 1, 0, 0.000000000000112861)"><g clip-path="url(#b14ff9f2d3)"><g clip-path="url(#6b270520e7)"><g clip-path="url(#b03d95b8eb)"><rect x="-330" width="2160" fill="#ffffff" height="2159.999904" y="-329.999985" fill-opacity="1"/></g></g></g></g></g><path fill="#000000" d="M 903.296875 470.1875 C 908.058594 472.890625 912.683594 475.816406 917.167969 478.96875 C 921.648438 482.117188 925.96875 485.472656 930.128906 489.039062 C 934.285156 492.605469 938.261719 496.363281 942.058594 500.316406 C 945.855469 504.265625 949.449219 508.390625 952.847656 512.6875 C 956.246094 516.984375 959.425781 521.4375 962.394531 526.042969 C 965.363281 530.648438 968.101562 535.382812 970.609375 540.253906 C 973.121094 545.121094 975.390625 550.101562 977.417969 555.191406 C 979.449219 560.277344 981.226562 565.453125 982.757812 570.714844 C 987.808594 572.523438 992.78125 574.808594 997.515625 577.546875 C 998.207031 577.945312 998.847656 578.347656 999.457031 578.796875 C 1005.46875 582.441406 1011.054688 586.800781 1016.132812 591.828125 C 1017.199219 592.898438 1018.238281 593.992188 1019.25 595.109375 C 1020.261719 596.230469 1021.246094 597.375 1022.199219 598.546875 C 1023.152344 599.714844 1024.078125 600.90625 1024.972656 602.125 C 1025.867188 603.339844 1026.730469 604.578125 1027.5625 605.839844 C 1028.390625 607.097656 1029.191406 608.378906 1029.957031 609.679688 C 1030.726562 610.976562 1031.460938 612.296875 1032.160156 613.632812 C 1032.859375 614.972656 1033.527344 616.324219 1034.160156 617.695312 C 1034.792969 619.066406 1035.390625 620.453125 1035.953125 621.851562 C 1036.511719 623.253906 1037.039062 624.667969 1037.53125 626.09375 C 1038.023438 627.523438 1038.476562 628.960938 1038.894531 630.414062 C 1039.316406 631.863281 1039.695312 633.324219 1040.042969 634.792969 C 1040.386719 636.261719 1040.695312 637.738281 1040.964844 639.222656 C 1041.234375 640.710938 1041.46875 642.199219 1041.664062 643.695312 C 1041.859375 645.195312 1042.015625 646.695312 1042.136719 648.199219 C 1042.253906 649.703125 1042.335938 651.210938 1042.378906 652.71875 C 1042.421875 654.230469 1042.429688 655.738281 1042.394531 657.246094 C 1042.363281 658.757812 1042.292969 660.261719 1042.183594 661.769531 C 1042.078125 663.273438 1041.929688 664.777344 1041.746094 666.273438 C 1041.5625 667.773438 1041.339844 669.265625 1041.078125 670.753906 C 1040.820312 672.238281 1040.523438 673.71875 1040.191406 675.191406 C 1039.855469 676.664062 1039.484375 678.125 1039.078125 679.578125 C 1038.667969 681.03125 1038.222656 682.476562 1037.742188 683.90625 C 1037.261719 685.335938 1036.746094 686.753906 1036.195312 688.160156 C 1035.640625 689.566406 1035.054688 690.953125 1034.433594 692.332031 C 1033.8125 693.707031 1033.15625 695.0625 1032.464844 696.40625 C 1031.773438 697.75 1031.050781 699.074219 1030.292969 700.378906 C 1029.535156 701.683594 1028.746094 702.96875 1027.921875 704.234375 C 1027.101562 705.5 1026.246094 706.746094 1025.359375 707.96875 C 1024.476562 709.191406 1023.558594 710.390625 1022.613281 711.566406 C 1021.667969 712.746094 1020.695312 713.898438 1019.691406 715.023438 C 1018.6875 716.152344 1017.65625 717.253906 1016.597656 718.328125 C 1015.539062 719.40625 1014.453125 720.453125 1013.339844 721.472656 C 1014.539062 722.574219 1015.710938 723.707031 1016.847656 724.871094 C 1017.984375 726.035156 1019.09375 727.230469 1020.164062 728.453125 C 1021.238281 729.679688 1022.277344 730.933594 1023.285156 732.210938 C 1024.289062 733.492188 1025.257812 734.800781 1026.191406 736.136719 C 1027.128906 737.46875 1028.023438 738.828125 1028.882812 740.210938 C 1029.746094 741.59375 1030.566406 742.996094 1031.351562 744.425781 C 1032.132812 745.851562 1032.878906 747.300781 1033.582031 748.769531 C 1034.289062 750.234375 1034.953125 751.722656 1035.578125 753.226562 C 1036.203125 754.730469 1036.785156 756.25 1037.324219 757.785156 C 1037.867188 759.320312 1038.367188 760.871094 1038.824219 762.433594 C 1039.28125 763.996094 1039.695312 765.570312 1040.066406 767.15625 C 1040.4375 768.742188 1040.765625 770.335938 1041.050781 771.941406 C 1041.335938 773.542969 1041.578125 775.152344 1041.773438 776.769531 C 1041.972656 778.386719 1042.125 780.007812 1042.234375 781.632812 C 1042.34375 783.257812 1042.40625 784.882812 1042.425781 786.511719 C 1042.449219 788.140625 1042.421875 789.765625 1042.355469 791.394531 C 1042.289062 793.019531 1042.175781 794.644531 1042.019531 796.265625 C 1041.863281 797.886719 1041.660156 799.503906 1041.417969 801.113281 C 1041.171875 802.722656 1040.886719 804.324219 1040.554688 805.917969 C 1040.222656 807.511719 1039.847656 809.097656 1039.429688 810.671875 C 1039.011719 812.246094 1038.550781 813.804688 1038.046875 815.355469 C 1037.546875 816.90625 1037 818.4375 1036.414062 819.957031 C 1035.828125 821.476562 1035.203125 822.980469 1034.535156 824.464844 C 1033.867188 825.949219 1033.15625 827.414062 1032.410156 828.863281 C 1031.664062 830.308594 1030.875 831.734375 1030.050781 833.136719 C 1029.226562 834.542969 1028.363281 835.921875 1027.460938 837.277344 C 1026.5625 838.636719 1025.625 839.96875 1024.652344 841.273438 C 1023.679688 842.578125 1022.671875 843.855469 1021.628906 845.109375 C 1020.585938 846.359375 1019.511719 847.582031 1018.402344 848.773438 C 1017.292969 849.964844 1016.152344 851.128906 1014.980469 852.257812 C 1013.808594 853.390625 1012.605469 854.488281 1011.375 855.550781 C 1010.144531 856.617188 1008.882812 857.648438 1007.597656 858.644531 L 1006.613281 859.414062 L 1007.171875 860.265625 C 1017.542969 876.277344 1022.726562 895.476562 1021.371094 915.183594 L 1021.132812 918.109375 C 1020.957031 919.84375 1020.730469 921.574219 1020.453125 923.296875 C 1020.175781 925.019531 1019.851562 926.730469 1019.472656 928.433594 C 1019.097656 930.136719 1018.671875 931.828125 1018.195312 933.507812 C 1017.722656 935.1875 1017.199219 936.847656 1016.625 938.496094 C 1016.054688 940.144531 1015.433594 941.777344 1014.765625 943.386719 C 1014.101562 945 1013.386719 946.589844 1012.625 948.160156 C 1011.867188 949.730469 1011.0625 951.28125 1010.210938 952.804688 C 1009.363281 954.328125 1008.46875 955.824219 1007.53125 957.296875 C 1006.59375 958.765625 1005.617188 960.210938 1004.59375 961.625 C 1003.574219 963.039062 1002.511719 964.421875 1001.410156 965.773438 C 1000.308594 967.128906 999.167969 968.445312 997.988281 969.734375 C 996.808594 971.019531 995.59375 972.269531 994.34375 973.484375 C 993.089844 974.699219 991.804688 975.878906 990.484375 977.019531 C 989.164062 978.160156 987.8125 979.261719 986.425781 980.320312 C 985.042969 981.382812 983.628906 982.402344 982.183594 983.382812 C 980.742188 984.363281 979.269531 985.296875 977.769531 986.191406 C 976.273438 987.085938 974.75 987.933594 973.203125 988.738281 C 971.652344 989.542969 970.082031 990.300781 968.492188 991.015625 C 966.898438 991.726562 965.289062 992.394531 963.65625 993.011719 C 962.023438 993.632812 960.378906 994.203125 958.714844 994.726562 C 957.046875 995.25 955.371094 995.722656 953.679688 996.148438 C 951.988281 996.574219 950.285156 996.949219 948.570312 997.277344 C 946.855469 997.601562 945.132812 997.878906 943.402344 998.105469 C 941.675781 998.332031 939.9375 998.503906 938.199219 998.628906 C 936.460938 998.753906 934.714844 998.828125 932.972656 998.851562 C 931.226562 998.875 929.484375 998.847656 927.742188 998.769531 C 926 998.691406 924.257812 998.5625 922.523438 998.382812 C 920.789062 998.203125 919.058594 997.972656 917.339844 997.691406 C 915.617188 997.410156 913.902344 997.078125 912.203125 996.699219 C 910.5 996.320312 908.808594 995.890625 907.132812 995.410156 C 905.453125 994.929688 903.792969 994.402344 902.144531 993.828125 C 900.496094 993.253906 898.867188 992.628906 897.257812 991.957031 C 896.597656 993.851562 895.875 995.71875 895.089844 997.5625 C 894.304688 999.402344 893.460938 1001.21875 892.554688 1003.007812 C 891.644531 1004.792969 890.679688 1006.546875 889.65625 1008.269531 C 888.632812 1009.992188 887.550781 1011.675781 886.414062 1013.328125 C 885.277344 1014.976562 884.089844 1016.585938 882.84375 1018.15625 C 881.597656 1019.726562 880.304688 1021.253906 878.957031 1022.738281 C 877.609375 1024.21875 876.214844 1025.65625 874.773438 1027.046875 C 873.328125 1028.4375 871.839844 1029.777344 870.308594 1031.066406 C 868.777344 1032.359375 867.203125 1033.597656 865.585938 1034.78125 C 863.972656 1035.964844 862.316406 1037.097656 860.625 1038.171875 C 858.933594 1039.246094 857.210938 1040.261719 855.453125 1041.21875 C 853.691406 1042.179688 851.902344 1043.078125 850.082031 1043.917969 C 848.265625 1044.757812 846.417969 1045.535156 844.546875 1046.25 C 842.675781 1046.964844 840.78125 1047.617188 838.867188 1048.207031 C 836.953125 1048.796875 835.019531 1049.320312 833.070312 1049.78125 C 831.121094 1050.242188 829.15625 1050.632812 827.179688 1050.960938 C 825.203125 1051.292969 823.21875 1051.554688 821.226562 1051.75 C 819.230469 1051.945312 817.234375 1052.070312 815.230469 1052.132812 C 813.226562 1052.195312 811.226562 1052.191406 809.222656 1052.117188 C 807.21875 1052.046875 805.222656 1051.90625 803.230469 1051.699219 C 801.238281 1051.496094 799.253906 1051.222656 797.277344 1050.882812 C 795.304688 1050.542969 793.34375 1050.140625 791.394531 1049.667969 C 789.449219 1049.199219 787.519531 1048.664062 785.605469 1048.066406 C 783.695312 1047.464844 781.804688 1046.804688 779.9375 1046.078125 C 778.070312 1045.351562 776.226562 1044.566406 774.414062 1043.714844 C 772.597656 1042.867188 770.8125 1041.957031 769.058594 1040.992188 C 767.304688 1040.023438 765.585938 1038.996094 763.902344 1037.914062 C 762.214844 1036.828125 760.570312 1035.691406 758.960938 1034.496094 C 757.351562 1033.304688 755.78125 1032.058594 754.257812 1030.757812 C 752.730469 1029.460938 751.25 1028.113281 749.816406 1026.714844 C 748.378906 1025.316406 746.992188 1023.871094 745.652344 1022.382812 C 744.316406 1020.890625 743.027344 1019.359375 741.792969 1017.78125 C 734.992188 1021.042969 727.929688 1023.5625 720.605469 1025.339844 C 713.277344 1027.121094 705.847656 1028.121094 698.308594 1028.339844 C 697.246094 1028.472656 696.128906 1028.550781 694.984375 1028.550781 L 671.132812 1028.550781 L 669.324219 1028.472656 C 639.644531 1026.691406 640.257812 981.269531 671.132812 981.269531 L 692.511719 981.269531 L 693.734375 981.160156 L 694.984375 981.136719 C 696.988281 981.167969 698.988281 981.101562 700.984375 980.941406 C 702.980469 980.777344 704.964844 980.515625 706.933594 980.15625 C 708.90625 979.800781 710.851562 979.347656 712.777344 978.796875 C 714.703125 978.246094 716.597656 977.605469 718.460938 976.871094 C 720.324219 976.136719 722.148438 975.308594 723.929688 974.394531 C 725.710938 973.480469 727.445312 972.480469 729.128906 971.398438 C 730.8125 970.3125 732.4375 969.148438 734.007812 967.902344 C 735.578125 966.660156 737.082031 965.339844 738.519531 963.949219 C 739.960938 962.558594 741.328125 961.097656 742.625 959.570312 C 743.921875 958.046875 745.140625 956.457031 746.28125 954.8125 C 747.421875 953.167969 748.480469 951.46875 749.453125 949.71875 C 750.425781 947.96875 751.3125 946.175781 752.113281 944.335938 C 752.910156 942.5 753.613281 940.628906 754.230469 938.722656 C 754.84375 936.816406 755.363281 934.882812 755.785156 932.925781 C 756.210938 930.96875 756.539062 928.996094 756.769531 927.007812 C 757 925.015625 757.132812 923.023438 757.164062 921.019531 C 757.199219 919.015625 757.136719 917.015625 756.972656 915.019531 C 756.8125 913.023438 756.554688 911.042969 756.195312 909.070312 C 755.839844 907.101562 755.386719 905.152344 754.839844 903.226562 C 754.289062 901.296875 753.648438 899.402344 752.914062 897.539062 C 752.179688 895.675781 751.355469 893.855469 750.445312 892.070312 C 749.53125 890.289062 748.53125 888.554688 747.449219 886.871094 C 746.363281 885.1875 745.203125 883.558594 743.957031 881.988281 C 742.714844 880.421875 741.398438 878.914062 740.007812 877.472656 C 738.613281 876.035156 737.15625 874.664062 735.628906 873.367188 C 734.105469 872.070312 732.519531 870.847656 730.875 869.707031 C 729.230469 868.566406 727.53125 867.507812 725.78125 866.53125 C 724.03125 865.558594 722.238281 864.671875 720.402344 863.871094 C 718.566406 863.074219 716.695312 862.367188 714.789062 861.75 C 712.882812 861.136719 710.953125 860.617188 708.996094 860.191406 C 707.039062 859.765625 705.0625 859.4375 703.074219 859.203125 C 701.085938 858.972656 699.089844 858.839844 697.085938 858.804688 C 696.378906 858.886719 695.671875 858.929688 694.960938 858.9375 L 505.453125 858.9375 C 504.679688 858.9375 503.90625 858.898438 503.136719 858.824219 C 502.363281 858.746094 501.601562 858.632812 500.839844 858.480469 C 500.082031 858.332031 499.332031 858.144531 498.589844 857.917969 C 497.847656 857.695312 497.121094 857.433594 496.40625 857.136719 C 495.691406 856.839844 494.992188 856.511719 494.308594 856.144531 C 493.625 855.78125 492.960938 855.382812 492.316406 854.953125 C 491.675781 854.523438 491.054688 854.0625 490.453125 853.570312 C 489.855469 853.078125 489.28125 852.558594 488.734375 852.011719 C 488.1875 851.464844 487.667969 850.890625 487.175781 850.292969 C 486.6875 849.695312 486.226562 849.074219 485.796875 848.429688 C 485.363281 847.785156 484.96875 847.121094 484.601562 846.4375 C 484.238281 845.757812 483.90625 845.058594 483.609375 844.34375 C 483.3125 843.625 483.054688 842.898438 482.828125 842.15625 C 482.605469 841.417969 482.417969 840.667969 482.265625 839.90625 C 482.113281 839.148438 482 838.382812 481.925781 837.613281 C 481.847656 836.839844 481.8125 836.070312 481.8125 835.292969 C 481.8125 834.519531 481.847656 833.746094 481.925781 832.976562 C 482 832.207031 482.113281 831.441406 482.265625 830.683594 C 482.417969 829.921875 482.605469 829.171875 482.828125 828.433594 C 483.054688 827.691406 483.3125 826.960938 483.609375 826.246094 C 483.90625 825.53125 484.238281 824.832031 484.601562 824.148438 C 484.96875 823.46875 485.363281 822.804688 485.796875 822.160156 C 486.226562 821.515625 486.6875 820.894531 487.175781 820.296875 C 487.667969 819.699219 488.1875 819.125 488.734375 818.578125 C 489.28125 818.03125 489.855469 817.511719 490.453125 817.019531 C 491.054688 816.527344 491.675781 816.066406 492.316406 815.636719 C 492.960938 815.207031 493.625 814.808594 494.308594 814.445312 C 494.992188 814.078125 495.691406 813.75 496.40625 813.453125 C 497.121094 813.15625 497.847656 812.894531 498.589844 812.671875 C 499.332031 812.445312 500.082031 812.257812 500.839844 812.105469 C 501.601562 811.957031 502.363281 811.84375 503.136719 811.765625 C 503.90625 811.691406 504.679688 811.652344 505.453125 811.652344 L 692.511719 811.652344 L 693.734375 811.546875 L 695.011719 811.519531 C 696.875 811.523438 698.734375 811.441406 700.589844 811.277344 C 702.449219 811.109375 704.292969 810.859375 706.125 810.523438 C 707.957031 810.191406 709.773438 809.773438 711.566406 809.269531 C 713.363281 808.769531 715.128906 808.1875 716.871094 807.527344 C 718.613281 806.863281 720.320312 806.125 721.996094 805.304688 C 723.667969 804.488281 725.300781 803.59375 726.894531 802.628906 C 728.488281 801.660156 730.03125 800.621094 731.53125 799.511719 C 733.027344 798.40625 734.472656 797.230469 735.863281 795.988281 C 737.25 794.75 738.582031 793.445312 739.855469 792.085938 C 741.125 790.722656 742.332031 789.304688 743.472656 787.832031 C 744.613281 786.359375 745.6875 784.839844 746.691406 783.269531 C 747.691406 781.699219 748.621094 780.085938 749.476562 778.429688 C 750.332031 776.773438 751.109375 775.082031 751.808594 773.355469 C 752.511719 771.628906 753.132812 769.875 753.671875 768.089844 C 754.210938 766.308594 754.671875 764.503906 755.046875 762.679688 C 755.421875 760.855469 755.710938 759.015625 755.917969 757.164062 C 756.128906 755.3125 756.25 753.453125 756.289062 751.589844 C 756.324219 749.726562 756.277344 747.867188 756.144531 746.007812 C 756.011719 744.148438 755.796875 742.300781 755.496094 740.460938 C 755.195312 738.625 754.808594 736.804688 754.339844 735 C 753.875 733.195312 753.324219 731.417969 752.695312 729.664062 C 752.0625 727.910156 751.355469 726.1875 750.566406 724.5 C 749.78125 722.8125 748.917969 721.164062 747.976562 719.550781 C 747.039062 717.941406 746.03125 716.378906 744.949219 714.863281 C 743.867188 713.34375 742.71875 711.878906 741.503906 710.464844 C 740.289062 709.054688 739.011719 707.699219 737.671875 706.402344 C 736.335938 705.109375 734.9375 703.875 733.488281 702.707031 C 732.035156 701.539062 730.535156 700.4375 728.984375 699.40625 C 727.429688 698.375 725.835938 697.417969 724.195312 696.535156 C 722.554688 695.648438 720.878906 694.839844 719.164062 694.105469 C 717.453125 693.375 715.707031 692.722656 713.9375 692.148438 C 712.164062 691.578125 710.367188 691.085938 708.550781 690.679688 L 704.800781 689.851562 C 702.175781 689.261719 699.527344 688.855469 696.847656 688.628906 C 696.226562 688.683594 695.609375 688.710938 694.984375 688.710938 L 505.453125 688.710938 C 504.664062 688.738281 503.871094 688.722656 503.082031 688.671875 C 502.292969 688.617188 501.507812 688.527344 500.730469 688.394531 C 499.949219 688.261719 499.179688 688.09375 498.414062 687.882812 C 497.652344 687.675781 496.902344 687.429688 496.164062 687.144531 C 495.425781 686.859375 494.703125 686.539062 494 686.183594 C 493.292969 685.828125 492.605469 685.433594 491.941406 685.011719 C 491.273438 684.585938 490.628906 684.125 490.007812 683.636719 C 489.386719 683.148438 488.792969 682.625 488.226562 682.078125 C 487.65625 681.527344 487.117188 680.949219 486.605469 680.347656 C 486.09375 679.742188 485.617188 679.113281 485.167969 678.460938 C 484.722656 677.808594 484.308594 677.136719 483.925781 676.445312 C 483.546875 675.75 483.203125 675.039062 482.894531 674.3125 C 482.585938 673.582031 482.3125 672.84375 482.078125 672.085938 C 481.84375 671.332031 481.648438 670.566406 481.492188 669.789062 C 481.335938 669.015625 481.214844 668.234375 481.136719 667.449219 C 481.058594 666.660156 481.019531 665.871094 481.019531 665.082031 C 481.019531 664.289062 481.058594 663.5 481.136719 662.714844 C 481.214844 661.929688 481.335938 661.148438 481.492188 660.371094 C 481.648438 659.597656 481.84375 658.832031 482.078125 658.078125 C 482.3125 657.320312 482.585938 656.578125 482.894531 655.851562 C 483.203125 655.125 483.546875 654.414062 483.925781 653.71875 C 484.308594 653.023438 484.722656 652.351562 485.167969 651.699219 C 485.617188 651.046875 486.09375 650.421875 486.605469 649.816406 C 487.117188 649.210938 487.65625 648.636719 488.226562 648.085938 C 488.792969 647.535156 489.386719 647.015625 490.007812 646.527344 C 490.628906 646.035156 491.273438 645.578125 491.941406 645.152344 C 492.605469 644.726562 493.292969 644.335938 494 643.980469 C 494.703125 643.625 495.425781 643.300781 496.164062 643.019531 C 496.902344 642.734375 497.652344 642.488281 498.414062 642.277344 C 499.179688 642.070312 499.949219 641.898438 500.730469 641.769531 C 501.507812 641.636719 502.292969 641.546875 503.082031 641.492188 C 503.871094 641.441406 504.664062 641.425781 505.453125 641.453125 L 692.539062 641.453125 L 693.761719 641.347656 L 695.011719 641.320312 C 697.015625 641.359375 699.015625 641.296875 701.011719 641.140625 C 703.011719 640.980469 704.996094 640.722656 706.96875 640.371094 C 708.941406 640.015625 710.890625 639.566406 712.816406 639.023438 C 714.746094 638.476562 716.644531 637.839844 718.507812 637.105469 C 720.375 636.375 722.199219 635.554688 723.984375 634.644531 C 725.765625 633.730469 727.503906 632.734375 729.191406 631.65625 C 730.875 630.574219 732.503906 629.410156 734.078125 628.167969 C 735.652344 626.929688 737.160156 625.613281 738.601562 624.222656 C 740.046875 622.832031 741.417969 621.375 742.71875 619.851562 C 744.015625 618.328125 745.238281 616.742188 746.382812 615.097656 C 747.527344 613.453125 748.589844 611.757812 749.566406 610.007812 C 750.546875 608.257812 751.433594 606.464844 752.238281 604.628906 C 753.039062 602.792969 753.746094 600.921875 754.367188 599.015625 C 754.984375 597.109375 755.507812 595.179688 755.933594 593.222656 C 756.363281 591.265625 756.691406 589.289062 756.925781 587.300781 C 757.160156 585.3125 757.296875 583.3125 757.335938 581.3125 C 757.375 579.308594 757.3125 577.308594 757.152344 575.308594 C 756.996094 573.3125 756.738281 571.328125 756.386719 569.355469 C 756.03125 567.382812 755.582031 565.433594 755.039062 563.507812 C 754.492188 561.578125 753.855469 559.679688 753.121094 557.816406 C 752.390625 555.949219 751.570312 554.125 750.660156 552.339844 C 749.746094 550.558594 748.75 548.820312 747.667969 547.132812 C 746.589844 545.449219 745.425781 543.816406 744.183594 542.246094 C 742.945312 540.671875 741.628906 539.164062 740.238281 537.722656 C 738.847656 536.277344 737.390625 534.90625 735.867188 533.605469 C 734.34375 532.304688 732.757812 531.085938 731.113281 529.941406 C 729.46875 528.796875 727.773438 527.734375 726.023438 526.757812 C 724.273438 525.777344 722.480469 524.890625 720.644531 524.085938 C 718.808594 523.285156 716.9375 522.574219 715.03125 521.957031 C 713.125 521.339844 711.195312 520.816406 709.238281 520.390625 C 707.28125 519.960938 705.304688 519.628906 703.316406 519.398438 C 701.328125 519.164062 699.328125 519.027344 697.328125 518.988281 C 696.558594 519.058594 695.785156 519.09375 695.011719 519.09375 L 671.15625 519.09375 L 669.324219 519.070312 C 639.644531 517.285156 640.257812 471.863281 671.132812 471.863281 L 692.40625 471.863281 C 693.265625 471.773438 694.125 471.730469 694.984375 471.730469 C 705.675781 471.730469 715.996094 473.273438 725.753906 476.144531 L 726.578125 475.613281 C 729.828125 473.5 733.144531 471.5 736.527344 469.617188 C 739.910156 467.730469 743.355469 465.960938 746.863281 464.308594 C 750.367188 462.660156 753.925781 461.128906 757.535156 459.722656 C 761.144531 458.3125 764.796875 457.03125 768.496094 455.871094 C 772.191406 454.710938 775.925781 453.679688 779.691406 452.777344 C 783.460938 451.875 787.253906 451.101562 791.074219 450.457031 C 794.894531 449.8125 798.734375 449.296875 802.589844 448.914062 C 806.445312 448.535156 810.308594 448.285156 814.179688 448.164062 C 818.054688 448.046875 821.925781 448.0625 825.796875 448.207031 C 829.667969 448.351562 833.53125 448.632812 837.386719 449.042969 C 841.238281 449.449219 845.070312 449.992188 848.886719 450.664062 C 852.703125 451.335938 856.492188 452.136719 860.253906 453.066406 C 864.015625 454 867.738281 455.054688 871.429688 456.242188 C 875.117188 457.425781 878.761719 458.734375 882.359375 460.171875 C 885.960938 461.605469 889.507812 463.160156 893 464.835938 C 896.492188 466.511719 899.925781 468.304688 903.296875 470.214844 Z M 803.914062 775.589844 L 802.105469 776.550781 L 799.898438 777.90625 C 798.421875 783.519531 796.503906 788.984375 794.148438 794.292969 C 791.792969 799.601562 789.027344 804.6875 785.855469 809.550781 C 782.683594 814.414062 779.144531 818.996094 775.238281 823.292969 C 771.328125 827.585938 767.105469 831.542969 762.5625 835.160156 C 765.742188 837.691406 768.769531 840.390625 771.644531 843.257812 C 774.519531 846.128906 777.226562 849.148438 779.761719 852.324219 C 782.296875 855.496094 784.648438 858.804688 786.8125 862.242188 C 788.972656 865.679688 790.9375 869.230469 792.703125 872.890625 C 794.464844 876.546875 796.019531 880.296875 797.359375 884.128906 C 798.703125 887.964844 799.824219 891.863281 800.726562 895.824219 C 801.628906 899.785156 802.308594 903.78125 802.761719 907.820312 C 803.214844 911.855469 803.4375 915.90625 803.433594 919.96875 C 803.445312 926.175781 802.921875 932.332031 801.867188 938.449219 C 800.8125 944.5625 799.242188 950.542969 797.160156 956.386719 C 795.074219 962.230469 792.503906 967.851562 789.449219 973.253906 C 786.394531 978.65625 782.902344 983.753906 778.96875 988.554688 C 779.703125 989.496094 780.476562 990.40625 781.285156 991.28125 C 782.09375 992.160156 782.941406 993 783.820312 993.804688 C 784.703125 994.613281 785.617188 995.378906 786.5625 996.105469 C 787.507812 996.835938 788.484375 997.523438 789.488281 998.171875 C 790.488281 998.816406 791.519531 999.417969 792.574219 999.980469 C 793.628906 1000.539062 794.703125 1001.054688 795.800781 1001.523438 C 796.898438 1001.992188 798.015625 1002.414062 799.148438 1002.789062 C 800.28125 1003.164062 801.429688 1003.492188 802.589844 1003.769531 C 803.75 1004.050781 804.921875 1004.277344 806.101562 1004.457031 C 807.28125 1004.640625 808.46875 1004.769531 809.660156 1004.847656 C 810.851562 1004.929688 812.042969 1004.960938 813.234375 1004.9375 C 814.429688 1004.917969 815.621094 1004.847656 816.808594 1004.726562 C 817.996094 1004.609375 819.175781 1004.4375 820.351562 1004.21875 C 821.523438 1003.996094 822.683594 1003.726562 823.835938 1003.410156 C 824.988281 1003.09375 826.121094 1002.726562 827.242188 1002.3125 C 828.363281 1001.898438 829.460938 1001.441406 830.542969 1000.933594 C 831.625 1000.429688 832.683594 999.878906 833.71875 999.28125 C 834.753906 998.6875 835.761719 998.050781 836.742188 997.367188 C 837.722656 996.6875 838.675781 995.96875 839.59375 995.207031 C 840.515625 994.449219 841.402344 993.652344 842.253906 992.816406 C 843.109375 991.980469 843.925781 991.109375 844.707031 990.207031 C 845.484375 989.304688 846.226562 988.367188 846.925781 987.402344 C 847.628906 986.4375 848.289062 985.441406 848.90625 984.421875 C 849.523438 983.398438 850.097656 982.351562 850.625 981.285156 C 851.15625 980.214844 851.640625 979.121094 852.078125 978.011719 C 852.515625 976.902344 852.90625 975.773438 853.25 974.628906 C 853.589844 973.488281 853.886719 972.332031 854.128906 971.164062 C 854.375 969.996094 854.570312 968.816406 854.71875 967.632812 C 854.863281 966.449219 854.960938 965.257812 855.007812 964.066406 C 855.054688 962.875 855.050781 961.679688 854.996094 960.488281 C 854.941406 959.296875 854.835938 958.105469 854.679688 956.921875 C 854.527344 955.738281 854.324219 954.5625 854.070312 953.398438 L 853.273438 950.101562 L 852.925781 948 L 852.792969 946.507812 L 852.765625 945.394531 L 852.792969 943.851562 L 852.925781 942.441406 L 853.273438 940.367188 L 853.75 938.453125 L 854.335938 936.75 L 855.265625 934.648438 L 855.398438 934.382812 C 856.5 932.242188 857.898438 930.316406 859.601562 928.613281 L 861.0625 927.230469 L 862.15625 926.378906 L 863.484375 925.449219 L 864.601562 924.757812 L 866.0625 923.957031 L 868.003906 923.160156 L 869.496094 922.628906 L 870.558594 922.335938 L 872.632812 921.910156 L 874.574219 921.671875 L 875.769531 921.617188 L 877.046875 921.617188 L 878.136719 921.671875 L 879.679688 921.832031 L 881.167969 922.097656 L 882.816406 922.496094 L 883.640625 922.761719 L 884.945312 923.214844 L 886.382812 923.824219 L 887.550781 924.382812 L 888.960938 925.207031 L 889.890625 925.820312 C 891.488281 926.9375 892.921875 928.214844 894.226562 929.730469 L 895.238281 930.953125 L 896.140625 932.230469 C 896.964844 933.503906 897.851562 934.730469 898.804688 935.910156 C 899.757812 937.089844 900.773438 938.214844 901.847656 939.285156 C 902.921875 940.355469 904.050781 941.367188 905.230469 942.316406 C 906.414062 943.265625 907.644531 944.148438 908.917969 944.96875 C 910.195312 945.789062 911.511719 946.535156 912.871094 947.214844 C 914.226562 947.890625 915.617188 948.496094 917.035156 949.023438 C 918.457031 949.554688 919.902344 950.007812 921.371094 950.382812 C 922.84375 950.757812 924.328125 951.050781 925.828125 951.269531 C 927.328125 951.484375 928.839844 951.621094 930.355469 951.675781 C 931.871094 951.730469 933.382812 951.703125 934.898438 951.59375 C 936.410156 951.488281 937.914062 951.300781 939.40625 951.03125 C 940.898438 950.765625 942.371094 950.417969 943.828125 949.992188 C 945.285156 949.566406 946.710938 949.066406 948.113281 948.488281 C 949.515625 947.910156 950.882812 947.257812 952.214844 946.53125 C 953.546875 945.808594 954.839844 945.015625 956.085938 944.152344 C 957.332031 943.289062 958.53125 942.363281 959.679688 941.371094 C 960.828125 940.382812 961.921875 939.332031 962.957031 938.226562 C 963.992188 937.117188 964.96875 935.960938 965.878906 934.746094 C 966.792969 933.535156 967.636719 932.28125 968.414062 930.976562 C 969.195312 929.675781 969.898438 928.335938 970.535156 926.957031 C 971.167969 925.582031 971.730469 924.171875 972.214844 922.734375 C 972.699219 921.300781 973.101562 919.839844 973.433594 918.359375 C 973.761719 916.878906 974.007812 915.382812 974.175781 913.878906 C 974.34375 912.371094 974.433594 910.859375 974.441406 909.339844 C 974.445312 907.824219 974.371094 906.3125 974.21875 904.804688 C 974.0625 903.292969 973.828125 901.796875 973.511719 900.316406 C 973.195312 898.832031 972.804688 897.367188 972.332031 895.925781 C 971.859375 894.484375 971.3125 893.074219 970.691406 891.691406 C 970.070312 890.308594 969.375 888.960938 968.609375 887.652344 C 967.84375 886.34375 967.007812 885.078125 966.105469 883.859375 C 965.207031 882.640625 964.242188 881.472656 963.214844 880.355469 C 962.1875 879.238281 961.105469 878.179688 959.964844 877.179688 C 955.777344 877.546875 951.585938 877.609375 947.386719 877.367188 L 945.871094 877.234375 L 945.179688 877.101562 L 944.753906 877.101562 C 942.433594 876.894531 940.125 876.601562 937.824219 876.21875 C 935.527344 875.832031 933.246094 875.359375 930.984375 874.796875 C 928.722656 874.238281 926.488281 873.585938 924.277344 872.851562 C 922.066406 872.117188 919.886719 871.296875 917.738281 870.390625 C 915.589844 869.484375 913.480469 868.496094 911.410156 867.425781 C 909.339844 866.355469 907.316406 865.207031 905.335938 863.980469 C 903.355469 862.753906 901.425781 861.449219 899.542969 860.070312 C 897.664062 858.695312 895.84375 857.246094 894.074219 855.726562 C 892.308594 854.207031 890.605469 852.621094 888.960938 850.96875 C 887.316406 849.316406 885.742188 847.601562 884.230469 845.824219 C 882.722656 844.050781 881.285156 842.21875 879.917969 840.332031 C 878.550781 838.445312 877.257812 836.507812 876.042969 834.519531 C 874.828125 832.53125 873.691406 830.5 872.632812 828.421875 C 871.574219 826.347656 870.597656 824.230469 869.703125 822.078125 C 868.8125 819.925781 868.003906 817.742188 867.28125 815.527344 C 866.558594 813.3125 865.921875 811.070312 865.371094 808.808594 L 864.679688 805.722656 C 864.527344 804.917969 864.351562 804.121094 864.152344 803.328125 C 863.953125 802.535156 863.730469 801.746094 863.488281 800.96875 C 863.242188 800.1875 862.976562 799.414062 862.6875 798.648438 C 862.398438 797.882812 862.089844 797.128906 861.757812 796.378906 C 861.421875 795.632812 861.070312 794.894531 860.695312 794.167969 C 860.320312 793.441406 859.925781 792.726562 859.507812 792.023438 C 859.089844 791.320312 858.65625 790.628906 858.199219 789.949219 C 857.742188 789.269531 857.265625 788.605469 856.773438 787.953125 C 856.277344 787.300781 855.765625 786.664062 855.234375 786.042969 C 854.703125 785.421875 854.15625 784.816406 853.589844 784.226562 C 853.023438 783.636719 852.441406 783.0625 851.839844 782.503906 C 851.242188 781.949219 850.625 781.410156 849.996094 780.886719 C 849.367188 780.367188 848.722656 779.863281 848.0625 779.378906 C 847.402344 778.898438 846.730469 778.433594 846.042969 777.988281 C 845.359375 777.542969 844.660156 777.117188 843.949219 776.710938 C 843.238281 776.308594 842.515625 775.921875 841.785156 775.558594 C 841.050781 775.195312 840.308594 774.855469 839.554688 774.535156 C 838.804688 774.214844 838.042969 773.914062 837.273438 773.636719 C 836.503906 773.363281 835.726562 773.105469 834.941406 772.875 C 834.15625 772.644531 833.367188 772.433594 832.570312 772.25 C 831.773438 772.0625 830.972656 771.898438 830.167969 771.757812 C 829.363281 771.617188 828.554688 771.503906 827.742188 771.410156 C 826.929688 771.316406 826.113281 771.246094 825.296875 771.199219 C 824.480469 771.152344 823.664062 771.128906 822.84375 771.128906 C 822.027344 771.132812 821.210938 771.15625 820.394531 771.203125 C 819.578125 771.25 818.761719 771.324219 817.949219 771.417969 C 817.136719 771.511719 816.328125 771.628906 815.523438 771.769531 C 814.71875 771.914062 813.917969 772.078125 813.121094 772.265625 C 812.324219 772.453125 811.535156 772.664062 810.75 772.894531 C 809.96875 773.128906 809.191406 773.386719 808.421875 773.664062 C 807.652344 773.941406 806.890625 774.242188 806.140625 774.5625 C 805.386719 774.882812 804.644531 775.226562 803.914062 775.59375 Z M 686.476562 897.789062 C 687.265625 897.761719 688.054688 897.777344 688.84375 897.828125 C 689.632812 897.882812 690.417969 897.972656 691.199219 898.105469 C 691.980469 898.238281 692.75 898.40625 693.511719 898.617188 C 694.277344 898.824219 695.027344 899.070312 695.765625 899.355469 C 696.503906 899.640625 697.222656 899.960938 697.929688 900.316406 C 698.636719 900.671875 699.320312 901.066406 699.988281 901.488281 C 700.65625 901.914062 701.300781 902.375 701.917969 902.863281 C 702.539062 903.351562 703.136719 903.875 703.703125 904.421875 C 704.273438 904.972656 704.8125 905.550781 705.324219 906.152344 C 705.832031 906.757812 706.3125 907.386719 706.761719 908.039062 C 707.207031 908.691406 707.621094 909.363281 708 910.054688 C 708.382812 910.75 708.726562 911.460938 709.035156 912.1875 C 709.34375 912.917969 709.613281 913.65625 709.847656 914.414062 C 710.082031 915.167969 710.28125 915.933594 710.4375 916.710938 C 710.59375 917.484375 710.714844 918.265625 710.792969 919.050781 C 710.871094 919.839844 710.910156 920.628906 710.910156 921.417969 C 710.910156 922.210938 710.871094 923 710.792969 923.785156 C 710.714844 924.570312 710.59375 925.351562 710.4375 926.128906 C 710.28125 926.902344 710.082031 927.667969 709.847656 928.421875 C 709.613281 929.179688 709.34375 929.921875 709.035156 930.648438 C 708.726562 931.375 708.382812 932.085938 708 932.78125 C 707.621094 933.476562 707.207031 934.148438 706.761719 934.800781 C 706.3125 935.453125 705.832031 936.078125 705.324219 936.683594 C 704.8125 937.289062 704.273438 937.863281 703.703125 938.414062 C 703.136719 938.964844 702.539062 939.484375 701.917969 939.972656 C 701.300781 940.464844 700.65625 940.921875 699.988281 941.347656 C 699.320312 941.773438 698.636719 942.164062 697.929688 942.519531 C 697.222656 942.878906 696.503906 943.199219 695.765625 943.480469 C 695.027344 943.765625 694.277344 944.011719 693.511719 944.222656 C 692.75 944.429688 691.980469 944.601562 691.199219 944.730469 C 690.417969 944.863281 689.632812 944.953125 688.84375 945.007812 C 688.054688 945.058594 687.265625 945.074219 686.476562 945.046875 L 588.71875 945.046875 C 587.960938 945.023438 587.207031 944.960938 586.453125 944.863281 C 585.703125 944.765625 584.957031 944.628906 584.21875 944.460938 C 583.480469 944.292969 582.753906 944.085938 582.035156 943.847656 C 581.316406 943.605469 580.609375 943.332031 579.917969 943.027344 C 579.222656 942.71875 578.546875 942.378906 577.886719 942.007812 C 577.226562 941.632812 576.585938 941.230469 575.964844 940.796875 C 575.34375 940.363281 574.746094 939.898438 574.171875 939.40625 C 573.59375 938.917969 573.042969 938.398438 572.515625 937.851562 C 571.988281 937.308594 571.488281 936.738281 571.015625 936.148438 C 570.546875 935.554688 570.101562 934.941406 569.6875 934.304688 C 569.277344 933.667969 568.894531 933.015625 568.542969 932.34375 C 568.195312 931.671875 567.878906 930.984375 567.59375 930.28125 C 567.308594 929.578125 567.058594 928.867188 566.84375 928.140625 C 566.628906 927.414062 566.449219 926.675781 566.304688 925.933594 C 566.160156 925.191406 566.050781 924.441406 565.976562 923.6875 C 565.90625 922.933594 565.867188 922.175781 565.867188 921.417969 C 565.867188 920.660156 565.90625 919.90625 565.976562 919.152344 C 566.050781 918.394531 566.160156 917.648438 566.304688 916.902344 C 566.449219 916.160156 566.628906 915.425781 566.84375 914.699219 C 567.058594 913.972656 567.308594 913.257812 567.59375 912.554688 C 567.878906 911.851562 568.195312 911.164062 568.542969 910.492188 C 568.894531 909.820312 569.277344 909.167969 569.6875 908.53125 C 570.101562 907.898438 570.546875 907.28125 571.015625 906.691406 C 571.488281 906.097656 571.988281 905.527344 572.515625 904.984375 C 573.042969 904.4375 573.59375 903.921875 574.171875 903.429688 C 574.746094 902.9375 575.34375 902.476562 575.964844 902.039062 C 576.585938 901.605469 577.226562 901.203125 577.886719 900.832031 C 578.546875 900.457031 579.222656 900.117188 579.917969 899.8125 C 580.609375 899.503906 581.316406 899.230469 582.035156 898.988281 C 582.753906 898.75 583.480469 898.546875 584.21875 898.375 C 584.957031 898.207031 585.703125 898.074219 586.453125 897.976562 C 587.207031 897.878906 587.960938 897.816406 588.71875 897.789062 Z M 931.351562 618.476562 C 929.824219 619.359375 928.359375 620.332031 926.953125 621.398438 C 925.546875 622.460938 924.210938 623.609375 922.949219 624.839844 C 921.6875 626.070312 920.503906 627.375 919.402344 628.753906 C 918.304688 630.128906 917.292969 631.570312 916.371094 633.074219 C 915.449219 634.578125 914.625 636.132812 913.894531 637.738281 C 913.167969 639.34375 912.539062 640.988281 912.015625 642.671875 C 911.492188 644.355469 911.074219 646.066406 910.765625 647.800781 C 910.453125 649.539062 910.25 651.285156 910.15625 653.046875 L 910.101562 655.308594 C 910.101562 656.050781 910.066406 656.789062 910 657.527344 C 909.929688 658.265625 909.824219 659 909.6875 659.726562 C 909.546875 660.457031 909.375 661.175781 909.167969 661.886719 C 908.960938 662.601562 908.722656 663.300781 908.449219 663.992188 C 908.179688 664.679688 907.875 665.355469 907.539062 666.015625 C 907.203125 666.679688 906.835938 667.324219 906.4375 667.949219 C 906.042969 668.574219 905.617188 669.183594 905.164062 669.769531 C 904.710938 670.355469 904.230469 670.917969 903.722656 671.460938 C 903.21875 672.003906 902.6875 672.519531 902.132812 673.011719 C 901.574219 673.5 901 673.964844 900.398438 674.402344 C 899.800781 674.839844 899.183594 675.25 898.546875 675.628906 C 897.910156 676.007812 897.253906 676.355469 896.585938 676.671875 C 895.914062 676.988281 895.230469 677.273438 894.535156 677.527344 C 893.835938 677.78125 893.128906 678 892.414062 678.1875 C 891.695312 678.375 890.96875 678.527344 890.238281 678.644531 C 889.507812 678.765625 888.769531 678.847656 888.03125 678.898438 L 886.460938 678.949219 C 885.71875 678.949219 884.980469 678.914062 884.242188 678.84375 C 883.503906 678.777344 882.769531 678.671875 882.042969 678.53125 C 881.3125 678.394531 880.59375 678.222656 879.878906 678.015625 C 879.167969 677.808594 878.46875 677.570312 877.777344 677.296875 C 877.089844 677.023438 876.414062 676.722656 875.753906 676.386719 C 875.089844 676.050781 874.445312 675.683594 873.820312 675.285156 C 873.195312 674.890625 872.585938 674.464844 872 674.011719 C 871.414062 673.558594 870.851562 673.078125 870.308594 672.570312 C 869.765625 672.0625 869.25 671.535156 868.757812 670.976562 C 868.269531 670.421875 867.804688 669.847656 867.367188 669.246094 C 866.929688 668.648438 866.519531 668.03125 866.140625 667.394531 C 865.761719 666.753906 865.414062 666.101562 865.097656 665.433594 C 864.78125 664.761719 864.496094 664.078125 864.242188 663.382812 C 863.988281 662.683594 863.769531 661.976562 863.582031 661.257812 C 863.394531 660.542969 863.242188 659.816406 863.125 659.085938 C 863.003906 658.351562 862.921875 657.617188 862.871094 656.878906 L 862.820312 655.308594 C 862.816406 653.367188 862.679688 651.433594 862.414062 649.507812 C 862.144531 647.585938 861.75 645.6875 861.21875 643.816406 C 860.691406 641.949219 860.039062 640.121094 859.261719 638.34375 C 858.484375 636.5625 857.589844 634.84375 856.578125 633.1875 C 855.566406 631.527344 854.445312 629.945312 853.214844 628.441406 C 851.984375 626.9375 850.660156 625.527344 849.234375 624.203125 C 847.8125 622.878906 846.304688 621.660156 844.714844 620.546875 C 843.125 619.429688 841.46875 618.425781 839.738281 617.539062 C 838.011719 616.648438 836.234375 615.882812 834.402344 615.238281 C 832.566406 614.589844 830.699219 614.074219 828.796875 613.683594 C 826.894531 613.296875 824.972656 613.039062 823.035156 612.910156 C 821.097656 612.785156 819.15625 612.792969 817.21875 612.929688 C 815.28125 613.070312 813.363281 613.339844 811.464844 613.742188 C 809.5625 614.144531 807.699219 614.675781 805.871094 615.332031 C 804.042969 615.988281 802.265625 616.769531 800.546875 617.667969 C 798.824219 618.570312 797.171875 619.582031 795.589844 620.710938 C 793.828125 625.0625 791.792969 629.28125 789.484375 633.371094 C 787.175781 637.460938 784.613281 641.382812 781.796875 645.140625 C 778.980469 648.894531 775.933594 652.457031 772.65625 655.816406 C 769.378906 659.179688 765.898438 662.316406 762.214844 665.226562 C 767.058594 669.058594 771.542969 673.269531 775.667969 677.867188 C 779.789062 682.460938 783.496094 687.375 786.78125 692.601562 C 790.070312 697.828125 792.890625 703.296875 795.242188 709.003906 C 797.597656 714.714844 799.449219 720.582031 800.800781 726.605469 C 802.25 726.238281 803.710938 725.90625 805.175781 725.609375 C 806.640625 725.3125 808.113281 725.050781 809.59375 724.832031 C 811.070312 724.609375 812.554688 724.421875 814.042969 724.273438 C 815.53125 724.125 817.023438 724.015625 818.515625 723.941406 C 820.007812 723.867188 821.503906 723.832031 823 723.832031 C 824.496094 723.832031 825.988281 723.871094 827.484375 723.945312 C 828.976562 724.023438 830.46875 724.132812 831.957031 724.285156 C 833.445312 724.433594 834.925781 724.621094 836.40625 724.847656 C 837.882812 725.070312 839.355469 725.332031 840.820312 725.628906 C 842.289062 725.929688 843.746094 726.261719 845.195312 726.632812 C 846.640625 727.003906 848.082031 727.410156 849.507812 727.851562 C 850.9375 728.296875 852.355469 728.773438 853.757812 729.289062 C 855.164062 729.800781 856.554688 730.351562 857.929688 730.933594 C 859.308594 731.515625 860.671875 732.132812 862.015625 732.785156 C 863.363281 733.4375 864.691406 734.121094 866.003906 734.839844 C 867.316406 735.554688 868.609375 736.304688 869.882812 737.089844 C 871.160156 737.871094 872.414062 738.683594 873.648438 739.527344 C 874.878906 740.375 876.09375 741.25 877.28125 742.15625 C 878.472656 743.0625 879.640625 743.996094 880.78125 744.960938 C 881.925781 745.921875 883.046875 746.914062 884.140625 747.9375 C 885.234375 748.957031 886.300781 750.003906 887.339844 751.074219 C 888.382812 752.148438 889.398438 753.246094 890.382812 754.371094 C 891.371094 755.496094 892.328125 756.644531 893.257812 757.816406 C 894.1875 758.988281 895.085938 760.183594 895.953125 761.398438 C 896.824219 762.617188 897.664062 763.851562 898.46875 765.113281 C 899.277344 766.371094 900.050781 767.648438 900.796875 768.945312 C 901.539062 770.246094 902.25 771.558594 902.929688 772.894531 C 903.605469 774.226562 904.25 775.574219 904.859375 776.941406 C 905.472656 778.304688 906.046875 779.683594 906.585938 781.078125 C 907.128906 782.472656 907.636719 783.878906 908.105469 785.300781 C 908.578125 786.71875 909.011719 788.148438 909.414062 789.589844 C 909.8125 791.03125 910.175781 792.480469 910.5 793.941406 L 911.035156 796.414062 C 911.496094 798.597656 912.125 800.730469 912.921875 802.8125 C 913.71875 804.898438 914.671875 806.90625 915.785156 808.839844 C 916.898438 810.773438 918.15625 812.609375 919.558594 814.34375 C 920.957031 816.082031 922.488281 817.695312 924.144531 819.191406 C 925.796875 820.6875 927.5625 822.042969 929.429688 823.261719 C 931.300781 824.480469 933.25 825.542969 935.289062 826.457031 C 937.324219 827.367188 939.417969 828.113281 941.574219 828.695312 C 943.726562 829.277344 945.914062 829.683594 948.132812 829.921875 L 951.429688 830.1875 L 952.546875 830.242188 C 954.140625 830.242188 955.738281 830.164062 957.332031 829.976562 L 959.59375 829.683594 L 961.242188 829.285156 C 962.492188 829.019531 963.726562 828.699219 964.949219 828.324219 C 966.167969 827.949219 967.367188 827.519531 968.550781 827.035156 C 969.734375 826.550781 970.890625 826.015625 972.023438 825.429688 C 973.15625 824.839844 974.261719 824.203125 975.339844 823.515625 C 976.414062 822.828125 977.457031 822.09375 978.46875 821.3125 C 979.476562 820.53125 980.449219 819.707031 981.386719 818.835938 C 982.320312 817.96875 983.21875 817.058594 984.070312 816.109375 C 984.925781 815.160156 985.734375 814.171875 986.5 813.152344 C 987.265625 812.128906 987.980469 811.074219 988.652344 809.988281 C 989.320312 808.898438 989.941406 807.785156 990.511719 806.644531 C 991.082031 805.5 991.597656 804.332031 992.0625 803.144531 C 992.527344 801.957031 992.9375 800.746094 993.296875 799.519531 C 993.652344 798.292969 993.953125 797.054688 994.195312 795.800781 C 994.441406 794.546875 994.628906 793.285156 994.757812 792.015625 C 994.890625 790.746094 994.964844 789.472656 994.980469 788.195312 C 994.996094 786.917969 994.953125 785.644531 994.855469 784.371094 C 994.757812 783.097656 994.601562 781.832031 994.390625 780.570312 C 994.175781 779.3125 993.90625 778.066406 993.582031 776.832031 C 993.257812 775.597656 992.878906 774.378906 992.445312 773.175781 C 992.007812 771.976562 991.519531 770.796875 990.980469 769.640625 C 990.441406 768.484375 989.847656 767.355469 989.207031 766.25 C 988.5625 765.148438 987.871094 764.074219 987.132812 763.03125 C 986.394531 761.992188 985.609375 760.984375 984.78125 760.015625 C 983.953125 759.042969 983.082031 758.113281 982.167969 757.21875 C 981.253906 756.328125 980.300781 755.476562 979.3125 754.671875 C 978.320312 753.863281 977.296875 753.105469 976.238281 752.390625 C 975.179688 751.675781 974.09375 751.011719 972.972656 750.394531 C 971.855469 749.777344 970.710938 749.210938 969.542969 748.699219 C 968.375 748.183594 967.183594 747.726562 965.972656 747.320312 C 964.761719 746.914062 963.535156 746.5625 962.292969 746.265625 C 961.050781 745.96875 959.800781 745.730469 958.535156 745.546875 C 957.273438 745.363281 956.003906 745.238281 954.726562 745.167969 L 952.625 745.117188 C 950.894531 745.117188 949.179688 744.929688 947.488281 744.554688 C 945.796875 744.179688 944.164062 743.621094 942.59375 742.886719 C 941.023438 742.152344 939.554688 741.253906 938.183594 740.195312 C 936.8125 739.132812 935.570312 737.9375 934.460938 736.605469 L 933.558594 735.433594 C 932.582031 734.109375 931.753906 732.695312 931.074219 731.195312 C 930.398438 729.699219 929.878906 728.144531 929.527344 726.535156 C 929.175781 724.929688 928.992188 723.300781 928.984375 721.65625 C 928.972656 720.007812 929.132812 718.378906 929.464844 716.765625 C 929.71875 715.511719 930.074219 714.28125 930.527344 713.085938 C 930.980469 711.886719 931.53125 710.730469 932.171875 709.621094 C 932.8125 708.511719 933.542969 707.460938 934.355469 706.472656 C 935.167969 705.480469 936.054688 704.5625 937.015625 703.714844 C 937.980469 702.867188 939.003906 702.105469 940.089844 701.425781 C 941.175781 700.746094 942.3125 700.15625 943.492188 699.660156 C 944.675781 699.164062 945.890625 698.769531 947.136719 698.472656 C 948.382812 698.171875 949.644531 697.976562 950.925781 697.886719 L 952.625 697.859375 C 954.714844 697.855469 956.792969 697.703125 958.859375 697.394531 C 960.925781 697.089844 962.960938 696.632812 964.960938 696.027344 C 966.960938 695.417969 968.902344 694.667969 970.792969 693.777344 C 972.679688 692.882812 974.496094 691.855469 976.230469 690.695312 C 977.96875 689.535156 979.613281 688.253906 981.164062 686.851562 C 982.710938 685.449219 984.148438 683.941406 985.476562 682.328125 C 986.804688 680.714844 988.003906 679.011719 989.082031 677.222656 C 990.15625 675.429688 991.09375 673.570312 991.898438 671.640625 C 992.699219 669.710938 993.355469 667.734375 993.867188 665.707031 C 994.378906 663.683594 994.738281 661.628906 994.945312 659.550781 C 995.152344 657.472656 995.207031 655.386719 995.109375 653.300781 C 995.011719 651.214844 994.761719 649.144531 994.355469 647.09375 C 993.953125 645.046875 993.402344 643.035156 992.703125 641.066406 C 992.003906 639.097656 991.164062 637.191406 990.183594 635.347656 C 989.203125 633.5 988.09375 631.738281 986.851562 630.054688 C 985.613281 628.375 984.257812 626.792969 982.785156 625.308594 C 979.910156 622.46875 976.695312 620.082031 973.140625 618.15625 C 969.585938 616.230469 965.832031 614.839844 961.882812 613.980469 L 959.167969 613.476562 C 958.488281 613.363281 957.816406 613.222656 957.148438 613.050781 C 952.667969 612.558594 948.226562 612.777344 943.816406 613.703125 C 939.40625 614.632812 935.253906 616.222656 931.351562 618.476562 Z M 686.714844 726.976562 C 687.488281 726.976562 688.261719 727.015625 689.03125 727.09375 C 689.804688 727.167969 690.570312 727.28125 691.328125 727.433594 C 692.085938 727.582031 692.835938 727.773438 693.578125 727.996094 C 694.320312 728.222656 695.046875 728.480469 695.761719 728.777344 C 696.476562 729.074219 697.175781 729.40625 697.859375 729.769531 C 698.542969 730.136719 699.207031 730.53125 699.851562 730.960938 C 700.492188 731.394531 701.113281 731.855469 701.714844 732.34375 C 702.3125 732.835938 702.886719 733.355469 703.433594 733.902344 C 703.980469 734.449219 704.5 735.023438 704.992188 735.621094 C 705.480469 736.21875 705.941406 736.839844 706.371094 737.484375 C 706.804688 738.128906 707.199219 738.792969 707.566406 739.476562 C 707.929688 740.160156 708.261719 740.859375 708.558594 741.574219 C 708.855469 742.289062 709.113281 743.015625 709.339844 743.757812 C 709.5625 744.5 709.753906 745.25 709.902344 746.007812 C 710.054688 746.765625 710.167969 747.53125 710.242188 748.304688 C 710.320312 749.074219 710.355469 749.847656 710.355469 750.621094 C 710.355469 751.394531 710.320312 752.167969 710.242188 752.9375 C 710.167969 753.707031 710.054688 754.472656 709.902344 755.234375 C 709.753906 755.992188 709.5625 756.742188 709.339844 757.484375 C 709.113281 758.222656 708.855469 758.953125 708.558594 759.667969 C 708.261719 760.382812 707.929688 761.082031 707.566406 761.765625 C 707.199219 762.449219 706.804688 763.109375 706.371094 763.753906 C 705.941406 764.398438 705.480469 765.019531 704.992188 765.617188 C 704.5 766.21875 703.980469 766.789062 703.433594 767.335938 C 702.886719 767.886719 702.3125 768.40625 701.714844 768.894531 C 701.113281 769.386719 700.492188 769.847656 699.851562 770.277344 C 699.207031 770.707031 698.542969 771.105469 697.859375 771.46875 C 697.175781 771.835938 696.476562 772.167969 695.761719 772.460938 C 695.046875 772.757812 694.320312 773.019531 693.578125 773.242188 C 692.835938 773.46875 692.085938 773.65625 691.328125 773.808594 C 690.570312 773.957031 689.804688 774.074219 689.03125 774.148438 C 688.261719 774.222656 687.488281 774.261719 686.714844 774.261719 L 454.445312 774.261719 C 453.6875 774.238281 452.933594 774.175781 452.183594 774.078125 C 451.429688 773.980469 450.6875 773.84375 449.949219 773.675781 C 449.210938 773.507812 448.480469 773.300781 447.761719 773.0625 C 447.042969 772.824219 446.335938 772.550781 445.644531 772.242188 C 444.953125 771.933594 444.277344 771.59375 443.617188 771.222656 C 442.957031 770.847656 442.316406 770.445312 441.695312 770.011719 C 441.074219 769.578125 440.472656 769.113281 439.898438 768.621094 C 439.320312 768.132812 438.769531 767.613281 438.242188 767.066406 C 437.714844 766.523438 437.214844 765.953125 436.746094 765.363281 C 436.273438 764.769531 435.828125 764.15625 435.417969 763.519531 C 435.003906 762.886719 434.621094 762.230469 434.273438 761.558594 C 433.921875 760.886719 433.605469 760.199219 433.320312 759.496094 C 433.035156 758.796875 432.785156 758.082031 432.570312 757.355469 C 432.355469 756.628906 432.175781 755.890625 432.03125 755.148438 C 431.886719 754.40625 431.777344 753.65625 431.707031 752.902344 C 431.632812 752.148438 431.597656 751.390625 431.597656 750.632812 C 431.597656 749.875 431.632812 749.121094 431.707031 748.367188 C 431.777344 747.609375 431.886719 746.863281 432.03125 746.117188 C 432.175781 745.375 432.355469 744.640625 432.570312 743.914062 C 432.785156 743.1875 433.035156 742.472656 433.320312 741.769531 C 433.605469 741.066406 433.921875 740.378906 434.273438 739.707031 C 434.621094 739.035156 435.003906 738.382812 435.417969 737.746094 C 435.832031 737.113281 436.273438 736.496094 436.746094 735.90625 C 437.214844 735.3125 437.714844 734.742188 438.242188 734.199219 C 438.769531 733.652344 439.320312 733.136719 439.898438 732.644531 C 440.472656 732.152344 441.074219 731.691406 441.695312 731.253906 C 442.316406 730.820312 442.957031 730.417969 443.617188 730.046875 C 444.277344 729.671875 444.953125 729.332031 445.644531 729.027344 C 446.335938 728.71875 447.042969 728.445312 447.761719 728.203125 C 448.480469 727.964844 449.210938 727.761719 449.949219 727.589844 C 450.6875 727.421875 451.429688 727.289062 452.183594 727.191406 C 452.933594 727.09375 453.6875 727.03125 454.445312 727.003906 L 686.742188 727.003906 Z M 686.449219 555.925781 C 687.238281 555.902344 688.03125 555.914062 688.820312 555.964844 C 689.609375 556.019531 690.390625 556.113281 691.171875 556.242188 C 691.953125 556.375 692.722656 556.542969 693.484375 556.753906 C 694.25 556.960938 695 557.207031 695.738281 557.492188 C 696.476562 557.777344 697.199219 558.097656 697.902344 558.453125 C 698.609375 558.8125 699.296875 559.203125 699.960938 559.628906 C 700.628906 560.054688 701.273438 560.511719 701.894531 561 C 702.515625 561.492188 703.109375 562.011719 703.675781 562.5625 C 704.246094 563.109375 704.785156 563.6875 705.296875 564.292969 C 705.804688 564.894531 706.285156 565.523438 706.734375 566.175781 C 707.179688 566.828125 707.59375 567.5 707.976562 568.191406 C 708.355469 568.886719 708.699219 569.597656 709.007812 570.324219 C 709.316406 571.054688 709.589844 571.796875 709.824219 572.550781 C 710.058594 573.304688 710.253906 574.070312 710.410156 574.847656 C 710.566406 575.621094 710.6875 576.402344 710.765625 577.1875 C 710.84375 577.976562 710.882812 578.765625 710.882812 579.554688 C 710.882812 580.347656 710.84375 581.136719 710.765625 581.921875 C 710.6875 582.710938 710.566406 583.492188 710.410156 584.265625 C 710.253906 585.039062 710.058594 585.804688 709.824219 586.5625 C 709.589844 587.316406 709.316406 588.058594 709.007812 588.785156 C 708.699219 589.515625 708.355469 590.226562 707.976562 590.917969 C 707.59375 591.613281 707.179688 592.285156 706.734375 592.9375 C 706.285156 593.589844 705.804688 594.21875 705.296875 594.820312 C 704.785156 595.425781 704.246094 596 703.675781 596.550781 C 703.109375 597.101562 702.515625 597.621094 701.894531 598.109375 C 701.273438 598.601562 700.628906 599.058594 699.960938 599.484375 C 699.296875 599.910156 698.609375 600.300781 697.902344 600.65625 C 697.199219 601.015625 696.476562 601.335938 695.738281 601.617188 C 695 601.902344 694.25 602.148438 693.484375 602.359375 C 692.722656 602.566406 691.953125 602.738281 691.171875 602.867188 C 690.390625 603 689.609375 603.09375 688.820312 603.144531 C 688.03125 603.199219 687.238281 603.210938 686.449219 603.183594 L 588.746094 603.183594 C 587.953125 603.210938 587.164062 603.199219 586.375 603.144531 C 585.585938 603.09375 584.800781 603 584.019531 602.867188 C 583.242188 602.738281 582.46875 602.566406 581.707031 602.359375 C 580.945312 602.148438 580.195312 601.902344 579.457031 601.617188 C 578.71875 601.335938 577.996094 601.015625 577.289062 600.65625 C 576.585938 600.300781 575.898438 599.910156 575.230469 599.484375 C 574.566406 599.058594 573.921875 598.601562 573.300781 598.109375 C 572.679688 597.621094 572.085938 597.101562 571.515625 596.550781 C 570.949219 596 570.410156 595.425781 569.898438 594.820312 C 569.386719 594.21875 568.910156 593.589844 568.460938 592.9375 C 568.011719 592.285156 567.597656 591.613281 567.21875 590.917969 C 566.839844 590.226562 566.496094 589.515625 566.1875 588.785156 C 565.878906 588.058594 565.605469 587.316406 565.371094 586.5625 C 565.136719 585.804688 564.941406 585.039062 564.785156 584.265625 C 564.625 583.492188 564.507812 582.710938 564.429688 581.921875 C 564.347656 581.136719 564.308594 580.347656 564.308594 579.554688 C 564.308594 578.765625 564.347656 577.976562 564.429688 577.1875 C 564.507812 576.402344 564.625 575.621094 564.785156 574.847656 C 564.941406 574.070312 565.136719 573.304688 565.371094 572.550781 C 565.605469 571.796875 565.878906 571.054688 566.1875 570.324219 C 566.496094 569.597656 566.839844 568.886719 567.21875 568.191406 C 567.597656 567.5 568.011719 566.828125 568.460938 566.175781 C 568.910156 565.523438 569.386719 564.894531 569.898438 564.292969 C 570.410156 563.6875 570.949219 563.109375 571.515625 562.5625 C 572.085938 562.011719 572.679688 561.492188 573.300781 561 C 573.921875 560.511719 574.566406 560.054688 575.230469 559.628906 C 575.898438 559.203125 576.585938 558.8125 577.289062 558.453125 C 577.996094 558.097656 578.71875 557.777344 579.457031 557.492188 C 580.195312 557.207031 580.945312 556.960938 581.707031 556.753906 C 582.46875 556.542969 583.242188 556.375 584.019531 556.242188 C 584.800781 556.113281 585.585938 556.019531 586.375 555.964844 C 587.164062 555.914062 587.953125 555.902344 588.746094 555.925781 L 686.503906 555.925781 Z M 774.128906 503.964844 L 772.71875 504.523438 C 776.847656 508.753906 780.601562 513.296875 783.984375 518.148438 C 787.367188 523 790.328125 528.09375 792.875 533.429688 C 795.421875 538.765625 797.515625 544.273438 799.160156 549.953125 C 800.800781 555.632812 801.96875 561.410156 802.664062 567.28125 C 806.433594 566.527344 810.234375 566.015625 814.070312 565.746094 C 817.902344 565.476562 821.738281 565.457031 825.578125 565.679688 C 829.414062 565.90625 833.222656 566.375 837 567.085938 C 840.773438 567.800781 844.492188 568.753906 848.144531 569.945312 C 851.800781 571.136719 855.363281 572.554688 858.835938 574.207031 C 862.308594 575.855469 865.660156 577.71875 868.894531 579.796875 C 872.125 581.878906 875.210938 584.15625 878.152344 586.632812 C 881.09375 589.109375 883.863281 591.761719 886.460938 594.59375 C 889.453125 591.324219 892.671875 588.292969 896.117188 585.5 C 899.5625 582.707031 903.191406 580.183594 907.011719 577.929688 C 910.832031 575.675781 914.796875 573.71875 918.90625 572.054688 C 923.015625 570.390625 927.226562 569.039062 931.539062 568 C 930.738281 566.214844 929.898438 564.453125 929.015625 562.707031 C 928.132812 560.964844 927.207031 559.242188 926.242188 557.542969 C 925.277344 555.84375 924.273438 554.167969 923.226562 552.515625 C 922.179688 550.863281 921.097656 549.234375 919.972656 547.636719 C 918.851562 546.035156 917.691406 544.460938 916.492188 542.917969 C 915.296875 541.371094 914.0625 539.855469 912.789062 538.371094 C 911.519531 536.886719 910.214844 535.429688 908.875 534.007812 C 907.535156 532.582031 906.164062 531.191406 904.757812 529.832031 C 903.351562 528.476562 901.914062 527.152344 900.445312 525.863281 C 898.976562 524.570312 897.476562 523.316406 895.945312 522.101562 C 894.417969 520.882812 892.859375 519.699219 891.273438 518.558594 C 889.6875 517.414062 888.078125 516.308594 886.4375 515.242188 C 884.800781 514.175781 883.136719 513.148438 881.453125 512.160156 C 879.765625 511.171875 878.054688 510.226562 876.320312 509.320312 C 874.589844 508.414062 872.835938 507.550781 871.0625 506.726562 C 869.289062 505.90625 867.496094 505.125 865.6875 504.390625 C 863.875 503.652344 862.046875 502.960938 860.203125 502.308594 C 858.359375 501.660156 856.5 501.054688 854.628906 500.496094 C 852.757812 499.933594 850.871094 499.417969 848.972656 498.945312 C 847.078125 498.476562 845.167969 498.050781 843.25 497.671875 C 841.332031 497.292969 839.40625 496.957031 837.472656 496.667969 C 835.539062 496.382812 833.601562 496.140625 831.65625 495.945312 C 829.710938 495.75 827.761719 495.601562 825.808594 495.5 C 823.855469 495.394531 821.902344 495.339844 819.949219 495.332031 C 817.992188 495.320312 816.039062 495.359375 814.085938 495.445312 C 812.132812 495.527344 810.183594 495.660156 808.238281 495.835938 C 806.289062 496.011719 804.347656 496.238281 802.410156 496.507812 C 800.476562 496.777344 798.546875 497.09375 796.625 497.453125 C 794.703125 497.816406 792.792969 498.222656 790.890625 498.675781 C 788.988281 499.128906 787.101562 499.628906 785.222656 500.171875 C 783.34375 500.714844 781.480469 501.304688 779.628906 501.933594 C 777.78125 502.566406 775.945312 503.242188 774.128906 503.964844 Z M 774.128906 503.964844 " fill-opacity="1" fill-rule="evenodd"/></svg>