<svg xmlns="http://www.w3.org/2000/svg" xmlns:xlink="http://www.w3.org/1999/xlink" width="2000" zoomAndPan="magnify" viewBox="0 0 1500 1499.999933" height="2000" preserveAspectRatio="xMidYMid meet" version="1.0"><defs><clipPath id="42a37951cd"><path d="M 750 0 C 335.785156 0 0 335.785156 0 750 C 0 1164.214844 335.785156 1500 750 1500 C 1164.214844 1500 1500 1164.214844 1500 750 C 1500 335.785156 1164.214844 0 750 0 Z M 750 0 " clip-rule="nonzero"/></clipPath><clipPath id="7cdcdac226"><path d="M 0 0 L 1500 0 L 1500 1500 L 0 1500 Z M 0 0 " clip-rule="nonzero"/></clipPath><clipPath id="10aee699d6"><path d="M 750 0 C 335.785156 0 0 335.785156 0 750 C 0 1164.214844 335.785156 1500 750 1500 C 1164.214844 1500 1500 1164.214844 1500 750 C 1500 335.785156 1164.214844 0 750 0 Z M 750 0 " clip-rule="nonzero"/></clipPath><clipPath id="f9242e141e"><rect x="0" width="1500" y="0" height="1500"/></clipPath><clipPath id="a0d25ad7a2"><path d="M 519 403.867188 L 985 403.867188 L 985 1096.117188 L 519 1096.117188 Z M 519 403.867188 " clip-rule="nonzero"/></clipPath></defs><g clip-path="url(#42a37951cd)"><g transform="matrix(1, 0, 0, 1, 0, 0.000000000000112861)"><g clip-path="url(#f9242e141e)"><g clip-path="url(#7cdcdac226)"><g clip-path="url(#10aee699d6)"><rect x="-330" width="2160" fill="#ffffff" height="2159.999904" y="-329.999985" fill-opacity="1"/></g></g></g></g></g><path fill="#000000" d="M 617.914062 404.355469 C 674.332031 400.40625 724.058594 439.660156 731.328125 493.859375 C 738.25 545.316406 703.003906 595.097656 650.046875 606.78125 C 636.777344 609.722656 622.070312 608.886719 607.992188 610.675781 C 603.875 611.160156 599.78125 611.816406 595.71875 612.644531 C 591.65625 613.476562 587.632812 614.472656 583.652344 615.640625 C 579.675781 616.808594 575.75 618.140625 571.882812 619.640625 C 568.015625 621.136719 564.21875 622.796875 560.488281 624.613281 C 556.761719 626.429688 553.117188 628.402344 549.554688 630.527344 C 545.992188 632.648438 542.527344 634.917969 539.152344 637.335938 C 535.78125 639.75 532.519531 642.304688 529.363281 644.996094 C 526.207031 647.6875 523.167969 650.503906 520.25 653.449219 L 519.960938 653.59375 L 519.671875 653.566406 L 519.472656 653.394531 L 519.386719 653.105469 C 519.382812 652.925781 519.429688 652.761719 519.527344 652.613281 C 519.679688 652.398438 519.757812 652.15625 519.757812 651.894531 C 519.402344 603.550781 519.296875 555.207031 519.441406 506.867188 C 519.527344 453.21875 561.871094 408.335938 617.886719 404.355469 Z M 617.914062 404.355469 " fill-opacity="1" fill-rule="evenodd"/><g clip-path="url(#a0d25ad7a2)"><path fill="#000000" d="M 623.855469 852.730469 C 552.09375 852.15625 500.664062 781.488281 525.644531 715.40625 C 526.511719 713.136719 527.460938 710.898438 528.484375 708.691406 C 529.507812 706.484375 530.605469 704.316406 531.78125 702.1875 C 532.953125 700.054688 534.199219 697.96875 535.515625 695.925781 C 536.835938 693.878906 538.222656 691.882812 539.675781 689.9375 C 541.132812 687.988281 542.652344 686.089844 544.238281 684.246094 C 545.824219 682.40625 547.472656 680.617188 549.183594 678.886719 C 550.894531 677.15625 552.660156 675.488281 554.484375 673.882812 C 556.308594 672.273438 558.1875 670.730469 560.117188 669.253906 C 562.050781 667.773438 564.03125 666.363281 566.058594 665.023438 C 568.085938 663.679688 570.160156 662.410156 572.277344 661.210938 C 574.390625 660.015625 576.546875 658.890625 578.742188 657.839844 C 580.933594 656.789062 583.164062 655.816406 585.421875 654.921875 C 587.683594 654.027344 589.972656 653.207031 592.289062 652.46875 C 594.609375 651.730469 596.949219 651.074219 599.3125 650.5 C 601.671875 649.921875 604.054688 649.425781 606.449219 649.015625 C 608.847656 648.601562 611.253906 648.273438 613.675781 648.027344 C 625.933594 646.730469 640.671875 647.046875 652.46875 644.882812 C 713.15625 633.636719 760.058594 587.195312 769.519531 528.09375 C 771.625 515 770.5 499.367188 773.613281 485.464844 C 787.949219 421.085938 861.730469 384.972656 923.6875 414.046875 C 955.964844 429.25 977.625 457.949219 982.992188 492.214844 C 984.058594 499.222656 984.433594 507.933594 984.058594 518.316406 C 977.046875 704.878906 817.6875 854.261719 623.855469 852.675781 M 714.28125 882.382812 C 713.96875 882.261719 713.734375 882.050781 713.589844 881.75 L 713.589844 881.546875 L 713.648438 881.375 C 713.648438 881.289062 713.648438 881.257812 713.734375 881.230469 L 713.90625 881.144531 C 787.546875 864.269531 851.320312 830.378906 905.285156 779.441406 C 906.238281 778.546875 907.132812 778.605469 907.9375 779.640625 C 916.5625 791.0625 925.621094 803.292969 932.832031 814.976562 C 940.160156 826.710938 946.746094 838.847656 952.589844 851.386719 C 958.429688 863.929688 963.484375 876.78125 967.75 889.941406 C 972.015625 903.101562 975.464844 916.472656 978.089844 930.058594 C 980.714844 943.640625 982.503906 957.332031 983.453125 971.136719 C 984.230469 982.414062 984.488281 991.125 984.203125 997.296875 C 981.519531 1051.753906 935.976562 1095.652344 878.488281 1095.972656 C 827.636719 1096.289062 782.929688 1061.589844 773.296875 1013.046875 C 770.988281 1001.535156 771.679688 985.644531 769.777344 973.5 C 763.777344 936.148438 745.519531 905.890625 715.003906 882.816406 Z M 606.695312 1094.441406 C 563.488281 1086.941406 528.730469 1053.367188 520.972656 1011.632812 C 519.726562 1002.972656 519.199219 994.273438 519.382812 985.527344 L 519.382812 847.480469 C 519.382812 847.019531 519.527344 846.964844 519.875 847.25 C 548.113281 872.347656 577.820312 887.691406 616.589844 890.230469 L 626.972656 890.546875 C 677.476562 892.191406 720.253906 925.273438 730.117188 973.328125 C 744.710938 1044.398438 680.390625 1107.308594 606.664062 1094.472656 Z M 606.695312 1094.441406 " fill-opacity="1" fill-rule="evenodd"/></g></svg>