<svg xmlns="http://www.w3.org/2000/svg" xmlns:xlink="http://www.w3.org/1999/xlink" width="2000" zoomAndPan="magnify" viewBox="0 0 1500 1499.999933" height="2000" preserveAspectRatio="xMidYMid meet" version="1.0"><defs><clipPath id="5cddc4b300"><path d="M 750 0 C 335.785156 0 0 335.785156 0 750 C 0 1164.214844 335.785156 1500 750 1500 C 1164.214844 1500 1500 1164.214844 1500 750 C 1500 335.785156 1164.214844 0 750 0 Z M 750 0 " clip-rule="nonzero"/></clipPath><clipPath id="85ccb55185"><path d="M 0 0 L 1500 0 L 1500 1500 L 0 1500 Z M 0 0 " clip-rule="nonzero"/></clipPath><clipPath id="3c72fe2a60"><path d="M 750 0 C 335.785156 0 0 335.785156 0 750 C 0 1164.214844 335.785156 1500 750 1500 C 1164.214844 1500 1500 1164.214844 1500 750 C 1500 335.785156 1164.214844 0 750 0 Z M 750 0 " clip-rule="nonzero"/></clipPath><clipPath id="3e3497a407"><rect x="0" width="1500" y="0" height="1500"/></clipPath><clipPath id="cd597e48fd"><path d="M 453 750 L 1070 750 L 1070 1105.632812 L 453 1105.632812 Z M 453 750 " clip-rule="nonzero"/></clipPath><clipPath id="a2acaeee88"><path d="M 453 394.632812 L 762 394.632812 L 762 1105.632812 L 453 1105.632812 Z M 453 394.632812 " clip-rule="nonzero"/></clipPath></defs><g clip-path="url(#5cddc4b300)"><g transform="matrix(1, 0, 0, 1, 0, 0.000000000000112861)"><g clip-path="url(#3e3497a407)"><g clip-path="url(#85ccb55185)"><g clip-path="url(#3c72fe2a60)"><rect x="-330" width="2160" fill="#ffffff" height="2159.999904" y="-329.999985" fill-opacity="1"/></g></g></g></g></g><g clip-path="url(#cd597e48fd)"><path fill="#000000" d="M 761.773438 1105.632812 L 453.882812 927.824219 L 761.773438 750.074219 L 1069.636719 927.824219 L 761.746094 1105.574219 Z M 761.773438 1105.632812 " fill-opacity="0.66" fill-rule="evenodd"/></g><g clip-path="url(#a2acaeee88)"><path fill="#000000" d="M 453.882812 572.351562 L 761.773438 394.632812 L 761.773438 1105.632812 L 453.882812 927.882812 Z M 453.882812 572.351562 " fill-opacity="0.66" fill-rule="evenodd"/></g></svg>