<svg xmlns="http://www.w3.org/2000/svg" xmlns:xlink="http://www.w3.org/1999/xlink" width="2000" zoomAndPan="magnify" viewBox="0 0 1500 1499.999933" height="2000" preserveAspectRatio="xMidYMid meet" version="1.0"><defs><clipPath id="6ad980fb02"><path d="M 750 0 C 335.785156 0 0 335.785156 0 750 C 0 1164.214844 335.785156 1500 750 1500 C 1164.214844 1500 1500 1164.214844 1500 750 C 1500 335.785156 1164.214844 0 750 0 Z M 750 0 " clip-rule="nonzero"/></clipPath><clipPath id="bf79e87581"><path d="M 0 0 L 1500 0 L 1500 1500 L 0 1500 Z M 0 0 " clip-rule="nonzero"/></clipPath><clipPath id="86937e29e2"><path d="M 750 0 C 335.785156 0 0 335.785156 0 750 C 0 1164.214844 335.785156 1500 750 1500 C 1164.214844 1500 1500 1164.214844 1500 750 C 1500 335.785156 1164.214844 0 750 0 Z M 750 0 " clip-rule="nonzero"/></clipPath><clipPath id="8ded0d6090"><rect x="0" width="1500" y="0" height="1500"/></clipPath><clipPath id="50730a7e87"><path d="M 487 475.515625 L 1035 475.515625 L 1035 1046.265625 L 487 1046.265625 Z M 487 475.515625 " clip-rule="nonzero"/></clipPath></defs><g clip-path="url(#6ad980fb02)"><g transform="matrix(1, 0, 0, 1, 0, 0.000000000000112861)"><g clip-path="url(#8ded0d6090)"><g clip-path="url(#bf79e87581)"><g clip-path="url(#86937e29e2)"><rect x="-330" width="2160" fill="#ffffff" height="2159.999904" y="-329.999985" fill-opacity="1"/></g></g></g></g></g><g clip-path="url(#50730a7e87)"><path fill="#000000" d="M 838.34375 476.820312 L 521.816406 500.128906 C 496.300781 502.339844 487.40625 519.035156 487.40625 538.9375 L 487.40625 885.167969 C 487.40625 900.722656 492.945312 914.015625 506.285156 931.78125 L 580.699219 1028.332031 C 592.898438 1043.863281 604.003906 1047.214844 627.355469 1046.050781 L 994.945312 1023.886719 C 1026.027344 1021.675781 1034.921875 1007.238281 1034.921875 982.816406 L 1034.921875 593.328125 C 1034.921875 580.722656 1029.925781 577.058594 1015.207031 566.335938 L 1012.683594 564.480469 L 911.664062 493.46875 C 887.238281 475.726562 877.179688 473.492188 838.34375 476.820312 Z M 635.703125 586.929688 C 605.667969 588.972656 598.867188 589.425781 581.816406 575.585938 L 538.464844 541.148438 C 534.039062 536.703125 536.273438 531.164062 547.382812 530.066406 L 851.6875 507.878906 C 877.226562 505.644531 890.542969 514.539062 900.53125 522.292969 L 952.730469 560.03125 C 954.945312 561.148438 960.484375 567.785156 953.851562 567.785156 L 639.558594 586.667969 L 635.703125 586.90625 Z M 600.675781 979.511719 L 600.675781 648.808594 C 600.675781 634.398438 605.121094 627.738281 618.464844 626.621094 L 979.367188 605.550781 C 991.613281 604.433594 997.15625 612.207031 997.15625 626.621094 L 997.15625 955.039062 C 997.15625 969.523438 994.945312 981.722656 974.945312 982.816406 L 629.570312 1002.792969 C 609.546875 1003.910156 600.675781 997.273438 600.675781 979.484375 Z M 941.648438 666.546875 C 943.863281 676.585938 941.648438 686.574219 931.613281 687.714844 L 914.992188 691.019531 L 914.992188 935.109375 C 900.53125 942.886719 887.214844 947.308594 876.109375 947.308594 C 858.34375 947.308594 853.898438 941.792969 840.554688 925.144531 L 731.734375 754.277344 L 731.734375 919.605469 L 766.167969 927.382812 C 766.167969 927.382812 766.167969 947.359375 738.367188 947.359375 L 661.769531 951.78125 C 659.535156 947.335938 661.769531 936.226562 669.546875 934.015625 L 689.523438 928.5 L 689.523438 709.832031 L 661.769531 707.617188 C 659.558594 697.628906 665.097656 683.21875 680.652344 682.101562 L 762.839844 676.585938 L 876.109375 849.6875 L 876.109375 696.535156 L 847.238281 693.207031 C 845.003906 681.007812 853.898438 672.113281 865.003906 671.019531 L 941.648438 666.574219 Z M 941.648438 666.546875 " fill-opacity="1" fill-rule="evenodd"/></g></svg>