<svg xmlns="http://www.w3.org/2000/svg" xmlns:xlink="http://www.w3.org/1999/xlink" width="2000" zoomAndPan="magnify" viewBox="0 0 1500 1499.999933" height="2000" preserveAspectRatio="xMidYMid meet" version="1.0"><defs><clipPath id="d0ac32400e"><path d="M 750 0 C 335.785156 0 0 335.785156 0 750 C 0 1164.214844 335.785156 1500 750 1500 C 1164.214844 1500 1500 1164.214844 1500 750 C 1500 335.785156 1164.214844 0 750 0 Z M 750 0 " clip-rule="nonzero"/></clipPath><clipPath id="8909d7a928"><path d="M 0 0 L 1500 0 L 1500 1500 L 0 1500 Z M 0 0 " clip-rule="nonzero"/></clipPath><clipPath id="0d84474b29"><path d="M 750 0 C 335.785156 0 0 335.785156 0 750 C 0 1164.214844 335.785156 1500 750 1500 C 1164.214844 1500 1500 1164.214844 1500 750 C 1500 335.785156 1164.214844 0 750 0 Z M 750 0 " clip-rule="nonzero"/></clipPath><clipPath id="41d1664c5c"><rect x="0" width="1500" y="0" height="1500"/></clipPath><clipPath id="4ebc9d7917"><path d="M 395.796875 398 L 1104.546875 398 L 1104.546875 1102 L 395.796875 1102 Z M 395.796875 398 " clip-rule="nonzero"/></clipPath></defs><g clip-path="url(#d0ac32400e)"><g transform="matrix(1, 0, 0, 1, 0, 0.000000000000112861)"><g clip-path="url(#41d1664c5c)"><g clip-path="url(#8909d7a928)"><g clip-path="url(#0d84474b29)"><rect x="-330" width="2160" fill="#0ea982" height="2159.999904" y="-329.999985" fill-opacity="1"/></g></g></g></g></g><g clip-path="url(#4ebc9d7917)"><path fill="#ffffff" d="M 667.636719 654.644531 L 667.636719 587.914062 C 667.636719 582.292969 669.746094 578.074219 674.660156 575.269531 L 808.824219 498.003906 C 827.089844 487.46875 848.867188 482.550781 871.339844 482.550781 C 955.632812 482.550781 1009.019531 547.878906 1009.019531 617.417969 C 1009.019531 622.332031 1009.019531 627.953125 1008.3125 633.574219 L 869.230469 552.089844 C 860.804688 547.175781 852.371094 547.175781 843.945312 552.089844 Z M 980.914062 914.542969 L 980.914062 755.085938 C 980.914062 745.25 976.703125 738.226562 968.273438 733.3125 L 791.964844 630.757812 L 849.5625 597.742188 C 854.480469 594.9375 858.699219 594.9375 863.613281 597.742188 L 997.777344 675.007812 C 1036.414062 697.488281 1062.402344 745.25 1062.402344 791.609375 C 1062.402344 844.992188 1030.792969 894.160156 980.914062 914.535156 Z M 626.191406 774.058594 L 568.59375 740.34375 C 563.679688 737.535156 561.570312 733.320312 561.570312 727.699219 L 561.570312 573.167969 C 561.570312 498.007812 619.167969 441.109375 697.140625 441.109375 C 726.644531 441.109375 754.03125 450.945312 777.222656 468.503906 L 638.84375 548.585938 C 630.417969 553.5 626.199219 560.523438 626.199219 570.359375 L 626.199219 774.0625 Z M 750.171875 845.703125 L 667.636719 799.347656 L 667.636719 701.007812 L 750.171875 654.648438 L 832.703125 701.007812 L 832.703125 799.347656 Z M 803.207031 1059.246094 C 773.699219 1059.246094 746.3125 1049.40625 723.125 1031.847656 L 861.503906 951.769531 C 869.929688 946.855469 874.144531 939.828125 874.144531 929.992188 L 874.144531 726.289062 L 932.449219 760.003906 C 937.367188 762.808594 939.472656 767.027344 939.472656 772.648438 L 939.472656 927.179688 C 939.472656 1002.335938 881.171875 1059.238281 803.207031 1059.238281 Z M 636.726562 902.605469 L 502.5625 825.335938 C 463.925781 802.855469 437.941406 755.097656 437.941406 708.738281 C 437.941406 654.648438 470.25 606.183594 520.121094 585.8125 L 520.121094 745.960938 C 520.121094 755.800781 524.335938 762.824219 532.765625 767.738281 L 708.375 869.585938 L 650.777344 902.605469 C 645.859375 905.410156 641.644531 905.410156 636.726562 902.605469 Z M 629.007812 1017.800781 C 549.632812 1017.800781 491.328125 958.09375 491.328125 884.339844 C 491.328125 878.71875 492.035156 873.101562 492.730469 867.480469 L 631.109375 947.558594 C 639.535156 952.472656 647.96875 952.472656 656.394531 947.558594 L 832.703125 845.710938 L 832.703125 912.441406 C 832.703125 918.0625 830.597656 922.277344 825.679688 925.082031 L 691.511719 1002.347656 C 673.25 1012.886719 651.472656 1017.800781 629 1017.800781 Z M 803.207031 1101.386719 C 888.199219 1101.386719 959.140625 1040.980469 975.304688 960.898438 C 1053.972656 940.527344 1104.546875 866.773438 1104.546875 791.617188 C 1104.546875 742.445312 1083.476562 694.683594 1045.542969 660.261719 C 1049.058594 645.511719 1051.167969 630.757812 1051.167969 616.011719 C 1051.167969 515.566406 969.683594 440.402344 875.558594 440.402344 C 856.59375 440.402344 838.328125 443.210938 820.066406 449.535156 C 788.453125 418.628906 744.902344 398.960938 697.140625 398.960938 C 612.144531 398.960938 541.207031 459.367188 525.042969 539.445312 C 446.375 559.816406 395.796875 633.574219 395.796875 708.730469 C 395.796875 757.902344 416.867188 805.664062 454.800781 840.085938 C 451.289062 854.835938 449.179688 869.585938 449.179688 884.332031 C 449.179688 984.777344 530.664062 1059.941406 624.789062 1059.941406 C 643.753906 1059.941406 662.015625 1057.136719 680.28125 1050.808594 C 711.886719 1081.71875 755.4375 1101.386719 803.207031 1101.386719 Z M 803.207031 1101.386719 " fill-opacity="1" fill-rule="nonzero"/></g></svg>