<svg xmlns="http://www.w3.org/2000/svg" xmlns:xlink="http://www.w3.org/1999/xlink" width="2000" zoomAndPan="magnify" viewBox="0 0 1500 1499.999933" height="2000" preserveAspectRatio="xMidYMid meet" version="1.0"><defs><clipPath id="501a8e7c91"><path d="M 750 0 C 335.785156 0 0 335.785156 0 750 C 0 1164.214844 335.785156 1500 750 1500 C 1164.214844 1500 1500 1164.214844 1500 750 C 1500 335.785156 1164.214844 0 750 0 Z M 750 0 " clip-rule="nonzero"/></clipPath><clipPath id="073bcc0b37"><path d="M 0 0 L 1500 0 L 1500 1500 L 0 1500 Z M 0 0 " clip-rule="nonzero"/></clipPath><clipPath id="b8b663b805"><path d="M 750 0 C 335.785156 0 0 335.785156 0 750 C 0 1164.214844 335.785156 1500 750 1500 C 1164.214844 1500 1500 1164.214844 1500 750 C 1500 335.785156 1164.214844 0 750 0 Z M 750 0 " clip-rule="nonzero"/></clipPath><clipPath id="48d8678274"><rect x="0" width="1500" y="0" height="1500"/></clipPath><clipPath id="1d21b2cf46"><path d="M 472 432.601562 L 1028 432.601562 L 1028 1067.101562 L 472 1067.101562 Z M 472 432.601562 " clip-rule="nonzero"/></clipPath></defs><g clip-path="url(#501a8e7c91)"><g transform="matrix(1, 0, 0, 1, 0, 0.000000000000112861)"><g clip-path="url(#48d8678274)"><g clip-path="url(#073bcc0b37)"><g clip-path="url(#b8b663b805)"><rect x="-330" width="2160" fill="#ffffff" height="2159.999904" y="-329.999985" fill-opacity="1"/></g></g></g></g></g><g clip-path="url(#1d21b2cf46)"><path fill="#22b8cd" d="M 955.667969 432.601562 L 955.667969 624.855469 L 1027.445312 624.855469 L 1027.445312 898.429688 L 949.851562 898.429688 L 949.851562 1067.101562 L 763.808594 903.347656 L 763.808594 1065.804688 L 734.96875 1065.804688 L 734.96875 903.164062 L 548.714844 1067.101562 L 548.714844 896.183594 L 472.257812 896.183594 L 472.257812 622.632812 L 548.503906 622.632812 L 548.503906 432.601562 L 734.96875 604.285156 L 734.96875 437.625 L 763.785156 437.625 L 763.785156 609.203125 L 955.695312 432.601562 Z M 763.808594 671.703125 L 763.808594 865.199219 L 921.007812 1003.570312 L 921.007812 814.359375 L 763.808594 671.675781 Z M 734.753906 669.585938 L 577.558594 812.296875 L 577.558594 1003.570312 L 734.753906 865.199219 Z M 949.851562 869.984375 L 998.601562 869.984375 L 998.601562 653.328125 L 788.449219 653.328125 L 949.851562 799.792969 Z M 712.390625 651.082031 L 501.074219 651.082031 L 501.074219 867.734375 L 548.660156 867.734375 L 548.660156 799.632812 L 712.363281 651.054688 Z M 577.347656 498.0625 L 577.347656 622.582031 L 712.574219 622.582031 Z M 926.824219 498.0625 L 791.597656 622.582031 L 926.824219 622.582031 Z M 926.824219 498.0625 " fill-opacity="1" fill-rule="nonzero"/></g></svg>